<?xml version="1.0" encoding="iso-8859-1"?>
<!-- Generator: Adobe Illustrator 19.0.0, SVG Export Plug-In . SVG Version: 6.00 Build 0)  -->
<svg version="1.1" id="Layer_1" xmlns="http://www.w3.org/2000/svg" xmlns:xlink="http://www.w3.org/1999/xlink" x="0px" y="0px"
	 viewBox="0 0 512 512" style="enable-background:new 0 0 512 512;" xml:space="preserve">
<g>
	<polygon style="fill:#FFFFFF;" points="420,160 356,160 340,160 276,160 260,160 196,160 180,160 116,160 100,160 100,144 436,144 
		436,152 436,160 	"/>
	<polygon style="fill:#FFFFFF;" points="372,180.688 372,176 404,176 404,180.688 396,188.688 396,288 380,288 380,188.688 	"/>
	<polygon style="fill:#FFFFFF;" points="252,332.688 252,195.312 260,187.312 260,176 276,176 276,187.312 284,195.312 284,332.688 
		276,340.688 276,352 260,352 260,340.688 	"/>
	<polygon style="fill:#FFFFFF;" points="244,347.312 244,352 212,352 212,347.312 220,339.312 220,188.688 212,180.688 212,176 
		244,176 244,180.688 236,188.688 236,339.312 	"/>
	<polygon style="fill:#FFFFFF;" points="204,195.312 204,200 172,200 172,195.312 180,187.312 180,176 196,176 196,187.312 	"/>
	<polygon style="fill:#FFFFFF;" points="132,180.688 132,176 164,176 164,180.688 156,188.688 156,200 140,200 140,188.688 	"/>
	<polygon style="fill:#FFFFFF;" points="124,195.312 124,200 100,200 100,176 116,176 116,187.312 	"/>
	<polygon style="fill:#FFFFFF;" points="172,332.688 172,328 204,328 204,332.688 196,340.688 196,352 180,352 180,340.688 	"/>
	<polygon style="fill:#FFFFFF;" points="164,347.312 164,352 132,352 132,347.312 140,339.312 140,328 156,328 156,339.312 	"/>
	<polygon style="fill:#FFFFFF;" points="124,328 124,332.688 116,340.688 116,352 100,352 100,328 	"/>
	<polygon style="fill:#FFFFFF;" points="316,432 76,432 76,400 84,400 316,400 	"/>
	<polygon style="fill:#FFFFFF;" points="316,384 100,384 100,368 116,368 180,368 196,368 260,368 276,368 316,368 	"/>
	<polygon style="fill:#FFFFFF;" points="324,180.688 316,188.688 316,288 316,339.312 316,352 292,352 292,347.312 300,339.312 
		300,188.688 292,180.688 292,176 324,176 	"/>
	<polygon style="fill:#FFFFFF;" points="436,176 436,288 412,288 412,195.312 420,187.312 420,176 	"/>
	<polygon style="fill:#FFFFFF;" points="364,195.312 364,288 332,288 332,195.312 340,187.312 340,176 356,176 356,187.312 	"/>
	<polygon style="fill:#FFFFFF;" points="76,128 76,109.032 268,17.752 460,109.032 460,128 452,128 84,128 	"/>
</g>
<g>
	<polygon style="fill:#DCDDDE;" points="468,136 268,136 268,8 468,104 	"/>
	<rect x="268" y="368" style="fill:#DCDDDE;" width="168" height="16"/>
	<rect x="268" y="400" style="fill:#DCDDDE;" width="168" height="32"/>
	<polygon style="fill:#DCDDDE;" points="348,192 348,168 340,168 332,168 324,168 308,168 308,360 324,360 332,360 340,360 348,360 
		348,336 340,328 340,200 	"/>
	<polygon style="fill:#DCDDDE;" points="268,192 268,168 260,168 252,168 244,168 228,168 228,360 244,360 252,360 260,360 268,360 
		268,336 260,328 260,200 	"/>
	<polygon style="fill:#DCDDDE;" points="428,192 428,168 420,168 412,168 404,168 388,168 388,360 404,360 412,360 420,360 428,360 
		428,336 420,328 420,200 	"/>
	<polygon style="fill:#DCDDDE;" points="188,192 188,168 180,168 172,168 164,168 148,168 148,360 164,360 172,360 180,360 188,360 
		188,336 180,328 180,200 	"/>
</g>
<rect x="332" y="304" style="fill:#FFFFFF;" width="144" height="192"/>
<rect x="404" y="304" style="fill:#DCDDDE;" width="72" height="192"/>
<g>
	<rect x="356" y="328" style="fill:#67C18C;" width="96" height="48"/>
	<path style="fill:#67C18C;" d="M36,216h15.312c-3.04,6.208-8.92,12.072-15.312,15.272V216z"/>
	<path style="fill:#67C18C;" d="M36,312v-15.312c6.208,3.04,12.072,8.92,15.272,15.312H36z"/>
	<path style="fill:#67C18C;" d="M68.52,312l-1.016-2.76c-4.712-12.832-16.32-24.408-28.864-28.8L36,279.528v-31l2.76-1.016
		c12.84-4.72,24.408-16.32,28.792-28.864l0.92-2.648h127l1.016,2.76c1.688,4.592,4.328,8.976,7.504,12.968v64.52
		c-3.264,4.064-5.936,8.488-7.552,13.104L195.528,312H68.52z"/>
</g>
<g>
	<rect x="188" y="496" style="fill:#0C3847;" width="16" height="16"/>
	<rect x="220" y="496" style="fill:#0C3847;" width="16" height="16"/>
	<rect x="252" y="496" style="fill:#0C3847;" width="16" height="16"/>
	<rect x="284" y="496" style="fill:#0C3847;" width="16" height="16"/>
	<rect x="156" y="496" style="fill:#0C3847;" width="16" height="16"/>
	<path style="fill:#0C3847;" d="M268,112c17.648,0,32-14.352,32-32s-14.352-32-32-32s-32,14.352-32,32S250.352,112,268,112z M268,64
		c8.824,0,16,7.176,16,16s-7.176,16-16,16s-16-7.176-16-16S259.176,64,268,64z"/>
</g>
<g>
	<rect x="180" y="256" style="fill:#FFFFFF;" width="16" height="16"/>
	<rect x="68" y="256" style="fill:#FFFFFF;" width="16" height="16"/>
</g>
<g>
	<path style="fill:#0C3847;" d="M132,232c-17.648,0-32,14.352-32,32s14.352,32,32,32s32-14.352,32-32S149.648,232,132,232z M132,280
		c-8.824,0-16-7.176-16-16s7.176-16,16-16s16,7.176,16,16S140.824,280,132,280z"/>
	<path style="fill:#0C3847;" d="M452,288V176v-24v-8h24V98.968L268,0L60,98.968V144h24v32v24H20v128h64v24v32H60v64h256v64h176V288
		H452z M76,128v-18.968l192-91.28l192,91.28V128h-8H84H76z M420,160h-64h-16h-64h-16h-64h-16h-64h-16v-16h336v8v8H420z M436,176v112
		h-24v-92.688l8-8V176H436z M372,180.688V176h32v4.688l-8,8V288h-16v-99.312L372,180.688z M364,195.312V288h-32v-92.688l8-8V176h16
		v11.312L364,195.312z M252,332.688V195.312l8-8V176h16v11.312l8,8v137.376l-8,8V352h-16v-11.312L252,332.688z M244,347.312V352h-32
		v-4.688l8-8V188.688l-8-8V176h32v4.688l-8,8v150.624L244,347.312z M204,195.312V200h-32v-4.688l8-8V176h16v11.312L204,195.312z
		 M132,180.688V176h32v4.688l-8,8V200h-16v-11.312L132,180.688z M124,195.312V200h-24v-24h16v11.312L124,195.312z M36,216h15.312
		c-3.04,6.208-8.92,12.072-15.312,15.272V216z M36,312v-15.312c6.208,3.04,12.072,8.92,15.272,15.312H36z M68.52,312l-1.016-2.76
		c-4.712-12.832-16.32-24.408-28.864-28.8L36,279.528v-31l2.76-1.016c12.84-4.72,24.408-16.32,28.792-28.864l0.92-2.648h127
		l1.016,2.76c1.688,4.592,4.328,8.976,7.504,12.968v64.52c-3.264,4.064-5.936,8.488-7.552,13.104L195.528,312H68.52z M172,332.688
		V328h32v4.688l-8,8V352h-16v-11.312L172,332.688z M164,347.312V352h-32v-4.688l8-8V328h16v11.312L164,347.312z M124,328v4.688l-8,8
		V352h-16v-24H124z M316,432H76v-32h8h232V432z M316,384H100v-16h16h64h16h64h16h40V384z M324,180.688l-8,8V288v51.312V352h-24
		v-4.688l8-8V188.688l-8-8V176h32V180.688z M476,496H332V304h144V496z"/>
	<rect x="348" y="400" style="fill:#0C3847;" width="16" height="16"/>
	<rect x="380" y="400" style="fill:#0C3847;" width="16" height="16"/>
	<rect x="412" y="400" style="fill:#0C3847;" width="16" height="16"/>
	<rect x="348" y="432" style="fill:#0C3847;" width="16" height="16"/>
	<rect x="380" y="432" style="fill:#0C3847;" width="16" height="16"/>
	<rect x="412" y="432" style="fill:#0C3847;" width="16" height="16"/>
	<rect x="348" y="464" style="fill:#0C3847;" width="16" height="16"/>
	<rect x="380" y="464" style="fill:#0C3847;" width="16" height="16"/>
	<rect x="412" y="464" style="fill:#0C3847;" width="16" height="16"/>
	<rect x="444" y="400" style="fill:#0C3847;" width="16" height="16"/>
	<path style="fill:#0C3847;" d="M460,320H348v64h112V320z M444,368h-80v-32h80V368z"/>
	<rect x="444" y="432" style="fill:#0C3847;" width="16" height="48"/>
	<rect x="156" y="464" style="fill:#0C3847;" width="16" height="16"/>
	<rect x="316" y="72" style="fill:#0C3847;" width="16" height="16"/>
	<rect x="204" y="72" style="fill:#0C3847;" width="16" height="16"/>
</g>
<circle style="fill:#FFFFFF;" cx="132" cy="264" r="16"/>
<circle style="fill:#44C8F5;" cx="268" cy="80" r="16"/>
<rect x="268" y="144" style="fill:#DCDDDE;" width="168" height="16"/>
<g>
</g>
<g>
</g>
<g>
</g>
<g>
</g>
<g>
</g>
<g>
</g>
<g>
</g>
<g>
</g>
<g>
</g>
<g>
</g>
<g>
</g>
<g>
</g>
<g>
</g>
<g>
</g>
<g>
</g>
</svg>
