<?xml version="1.0" encoding="iso-8859-1"?>
<!-- Generator: Adobe Illustrator 19.0.0, SVG Export Plug-In . SVG Version: 6.00 Build 0)  -->
<svg version="1.1" id="Layer_1" xmlns="http://www.w3.org/2000/svg" xmlns:xlink="http://www.w3.org/1999/xlink" x="0px" y="0px"
	 viewBox="0 0 512 512" style="enable-background:new 0 0 512 512;" xml:space="preserve">

<polygon style="fill:#A78966;" points="395.612,465.443 395.612,409.073 372.341,409.073 349.07,409.073 349.07,465.443
	372.341,465.443 "/>
<path style="fill:#368B4C;" d="M23.271,511.985h349.07h116.357c12.852,0,23.271-10.419,23.271-23.271
	c0-12.854-10.419-23.271-23.271-23.271h-93.085h-23.271H349.07H23.271C10.419,465.443,0,475.86,0,488.714
	C0,501.566,10.419,511.985,23.271,511.985z"/>
<path style="fill:#A4E276;" d="M508.973,384.145L393.155,152.509c-3.941-7.884-11.999-12.864-20.814-12.864
	c-8.815,0-16.873,4.98-20.814,12.864L235.171,385.222c-3.607,7.214-3.222,15.781,1.018,22.641
	c4.24,6.86,11.732,11.037,19.796,11.037h93.085h23.271h23.271h93.085c0.009,0,0.019,0,0.031,0c12.854,0,23.271-10.419,23.271-23.271
	C512,391.452,510.9,387.535,508.973,384.145z"/>
<path style="fill:#64C37D;" d="M351.527,152.509L235.171,385.222c-3.607,7.214-3.222,15.781,1.018,22.641
	c4.24,6.86,11.732,11.037,19.796,11.037h93.085h23.271V139.644C363.526,139.644,355.468,144.624,351.527,152.509z"/>
<g>
</g>
<g>
</g>
<g>
</g>
<g>
</g>
<g>
</g>
<g>
</g>
<g>
</g>
<g>
</g>
<g>
</g>
<g>
</g>
<g>
</g>
<g>
</g>
<g>
</g>
<g>
</g>
<g>
</g>
</svg>
