<?xml version="1.0" encoding="iso-8859-1"?>
<!-- Generator: Adobe Illustrator 19.0.0, SVG Export Plug-In . SVG Version: 6.00 Build 0)  -->
<svg version="1.1" id="Layer_1" xmlns="http://www.w3.org/2000/svg" xmlns:xlink="http://www.w3.org/1999/xlink" x="0px" y="0px"
	 viewBox="0 0 496.2 496.2" style="enable-background:new 0 0 496.2 496.2;" xml:space="preserve">
<path style="fill:green;" d="M496.2,248.1C496.2,111.1,385.1,0,248.1,0S0,111.1,0,248.1s111.1,248.1,248.1,248.1
	S496.2,385.1,496.2,248.1z"/>
<path style="fill:#EB9783;" d="M438.8,272c0-4.5-3.6-8.1-8.1-8.1c-1.9,0-3.6,0.6-4.9,1.7l-11-1.7L345.2,214
	c-11.4-8.5-4.3-27.4-4.2-27.6c0.1-0.3,0.1-0.6-0.1-0.9c-0.2-0.3-0.4-0.5-0.8-0.5c-1.3-0.2-2.7-0.3-4.1-0.3
	c-17.9,0-32.7,16.1-35.8,19.7c-21.9-11.8-45.8-17.8-71.1-17.8c-50.4,0-89.6,24.1-90,24.3c-18.2,12-29,27.9-32.1,47.1
	c-7.5,45.9,31.5,96.5,31.9,97c0,0.1,0.1,0.1,0.2,0.2c19.2,16.2,22.4,49,22.4,49.4c0.1,0.5,0.5,1,1.1,1h21.5c0.5,0,0.9-0.3,1-0.8
	l10.5-41.3c18.6,7.4,38,11.1,57.7,11.1c29.8,0,51.6-8.7,57-11l7.3,40.6c0.1,0.5,0.5,0.9,1,0.9h18.2c0.5,0,0.9-0.3,1-0.8l13.5-44.4
	c31.8-10.4,62.5-42.8,65-45.5l9.6-4c1.3,0.9,2.9,1.5,4.7,1.5c4.5,0,8.1-3.6,8.1-8.1l-1.4-16.2L438.8,272z"/>
<path style="fill:#A05C52;" d="M430.9,277.1c0,3.2,2.2,5.8,4.8,5.8c0.8,0,1.5-0.2,2.1-0.6l0.9-9.8c-0.8-0.8-1.9-1.3-3-1.3
	C433.1,271.2,430.9,273.9,430.9,277.1z"/>
<circle style="fill:#DAE5E8;" cx="346.3" cy="253.5" r="9.1"/>
<circle style="fill:#505151;" cx="344.6" cy="251.2" r="5.1"/>
<path style="fill:#EB9783;" d="M129.9,261c-1.5,0-3-0.5-4.2-1.5c-1-0.8-9.8-8.3-11.7-23.8c-0.8-6.8-6.7-14.6-14.3-19
	c-5.6-3.2-11.2-4-15.4-2.2c-13.2,5.8-13.6,15.1-13.2,18.9c0.5,4.7,3.2,8.4,5.4,8.8c5.6,1,11.5-0.9,13-3.4c1.4-2.2-1.2-6.3-2.4-7.9
	c-2.2-3-1.5-7.3,1.5-9.5c3.1-2.2,7.3-1.5,9.5,1.5c8.2,11.2,5.3,19.4,2.9,23.2c-5.4,8.6-17.7,11.3-27.1,9.5
	c-8.5-1.6-15.3-10.1-16.5-20.6c-1.2-10.8,3.7-25.2,21.2-32.9c8.1-3.6,18.2-2.6,27.6,2.8c11.5,6.5,19.7,18,21.1,29.2
	c1.2,10.1,6.5,14.7,6.8,14.9c2.8,2.4,3.3,6.7,0.9,9.6C133.8,260.1,131.8,261,129.9,261z"/>
<path style="fill:#A05C52;" d="M206.2,199.8c0,0,40.4-10.1,76.6,7.9l-0.7,12.8c0,0-43.3-15.5-75.8-6L206.2,199.8z"/>
<circle style="fill:#36B446;" cx="248.1" cy="110.9" r="46.1"/>
<path style="fill:#36B446;" d="M280.7,143.5c18-18,18-47.2,0-65.2l-65.2,65.2C233.5,161.5,262.7,161.5,280.7,143.5z"/>
<circle style="fill:#36B446;" cx="248.1" cy="110.9" r="39.9"/>
<path style="fill:#36B446;" d="M276.3,139.1c15.6-15.6,15.6-40.9,0-56.5l-56.4,56.5C235.5,154.7,260.7,154.7,276.3,139.1z"/>
<path style="fill:#E5AA17;" d="M263.4,97.1c0,2.9-3.3,5-3.5,4.8c-2.5-2.9-6.7-5-11-5c-4.4,0-7,2-7,4.9c0,3.4,3.6,4.3,8.6,5.4
	c6,1.3,13.9,3.7,13.9,12.3c0,6.6-4.6,11.2-12.2,12.3v2.5c0,3-1.2,4.4-3.8,4.4h-0.3c-2.7,0-3.7-1.4-3.7-4.4v-2.4
	c-7.9-0.8-12.4-4.4-12.4-8.1c0-2.8,3.1-4.8,3.4-4.6c2.5,3,7.3,5.5,12.4,5.5c4.6,0,7.3-2,7.3-4.9c0-3.6-4-4.6-8.8-5.7
	c-5.7-1.2-13.3-3.5-13.3-12.1c0-6.3,4.4-10.8,11.5-12.1v-2.4c0-3,1.1-4.4,3.7-4.4h0.4c2.7,0,3.7,1.4,3.7,4.4v2.2
	C259.4,90.5,263.4,93.8,263.4,97.1z"/>
<g>
	<path style="fill:#36B446;" d="M255,119.8c0-3.6-4-4.6-8.8-5.7c-0.3-0.1-0.7-0.2-1.1-0.2l-7.5,7.5c2.6,1.9,6.3,3.3,10.1,3.3
		C252.3,124.7,255,122.7,255,119.8z"/>
	<path style="fill:#36B446;" d="M276.3,82.6l-13.1,13.1c0.1,0.4,0.2,0.9,0.2,1.3c0,2.9-3.3,5-3.5,4.8c-0.4-0.5-0.9-0.9-1.4-1.4
		l-6.9,6.9c5.8,1.4,12.7,4,12.7,12c0,6.6-4.6,11.2-12.2,12.3v2.5c0,3-1.2,4.4-3.8,4.4H248c-2.7,0-3.7-1.4-3.7-4.4v-2.4
		c-6-0.6-10.1-2.9-11.6-5.5l-12.8,12.9c15.6,15.6,40.9,15.6,56.5,0C291.9,123.5,291.9,98.2,276.3,82.6z"/>
</g>
<path style="fill:#EFB533;" d="M235.3,119.2c-0.3-0.3-3.4,1.8-3.4,4.6c0,0.9,0.3,1.7,0.8,2.6l5-5C236.7,120.7,235.9,120,235.3,119.2
	z"/>
<path style="fill:#E5AA17;" d="M259.9,101.9c0.2,0.3,3.5-1.8,3.5-4.8c0-0.4-0.1-0.9-0.2-1.3l-4.7,4.7
	C259,100.9,259.5,101.4,259.9,101.9z"/>
<g>
</g>
<g>
</g>
<g>
</g>
<g>
</g>
<g>
</g>
<g>
</g>
<g>
</g>
<g>
</g>
<g>
</g>
<g>
</g>
<g>
</g>
<g>
</g>
<g>
</g>
<g>
</g>
<g>
</g>
</svg>
