<?xml version="1.0" encoding="iso-8859-1"?>
<!-- Generator: Adobe Illustrator 19.0.0, SVG Export Plug-In . SVG Version: 6.00 Build 0)  -->
<svg version="1.1" id="Layer_1" xmlns="http://www.w3.org/2000/svg" xmlns:xlink="http://www.w3.org/1999/xlink" x="0px" y="0px"
	 viewBox="0 0 512 512" style="enable-background:new 0 0 512 512;" xml:space="preserve">
<path style="fill:#11544F;" d="M231.715,449.259h-73.076c-7.251,0-13.128-5.878-13.128-13.128V302.309
	c0-7.251,5.878-13.128,13.128-13.128c7.251,0,13.128,5.878,13.128,13.128v120.694h46.819V209.032c0-12.909-10.501-23.41-23.41-23.41
	s-23.41,10.503-23.41,23.41v29.858c0,7.251-5.878,13.128-13.128,13.128s-13.128-5.878-13.128-13.128v-29.858
	c0-27.387,22.28-49.667,49.667-49.667s49.667,22.28,49.667,49.667v227.099C244.843,443.382,238.965,449.259,231.715,449.259z"/>
<path style="fill:#6AB797;" d="M280.285,436.131V112.407c0-20.179,16.359-36.539,36.539-36.539l0,0
	c20.179,0,36.538,16.359,36.538,36.539v323.724H280.285z"/>
<g>
	<path style="fill:#11544F;" d="M353.362,449.259h-73.077c-7.249,0-13.128-5.878-13.128-13.128V112.407
		c0-27.386,22.281-49.667,49.667-49.667c27.386,0,49.667,22.28,49.667,49.667v323.724
		C366.491,443.382,360.612,449.259,353.362,449.259z M293.414,423.003h46.821V112.407c0-12.909-10.501-23.41-23.41-23.41
		c-12.909,0-23.41,10.501-23.41,23.41L293.414,423.003L293.414,423.003z"/>
	<path style="fill:#11544F;" d="M475.009,449.259h-73.076c-7.249,0-13.128-5.878-13.128-13.128V258.746
		c0-27.386,22.28-49.667,49.665-49.667c27.385,0,49.667,22.28,49.667,49.667v177.386
		C488.137,443.382,482.258,449.259,475.009,449.259z M415.061,423.003h46.819V258.746c0-12.909-10.501-23.41-23.41-23.41
		c-12.908,0-23.409,10.501-23.409,23.41V423.003z"/>
</g>
<path style="fill:#6AB797;" d="M36.991,436.131V311.262c0-20.179,16.359-36.539,36.539-36.539l0,0
	c20.179,0,36.539,16.359,36.539,36.539v124.869H36.991z"/>
<g>
	<path style="fill:#11544F;" d="M110.068,449.259H36.991c-7.251,0-13.128-5.878-13.128-13.128V311.262
		c0-27.385,22.28-49.667,49.667-49.667s49.667,22.28,49.667,49.667v124.869C123.197,443.382,117.319,449.259,110.068,449.259z
		 M50.12,423.003H96.94V311.262c0-12.909-10.501-23.41-23.41-23.41s-23.41,10.501-23.41,23.41
		C50.12,311.262,50.12,423.003,50.12,423.003z"/>
	<path style="fill:#11544F;" d="M498.872,449.259H13.128C5.878,449.259,0,443.382,0,436.131s5.878-13.128,13.128-13.128h485.744
		c7.249,0,13.128,5.878,13.128,13.128S506.121,449.259,498.872,449.259z"/>
</g>
<g>
</g>
<g>
</g>
<g>
</g>
<g>
</g>
<g>
</g>
<g>
</g>
<g>
</g>
<g>
</g>
<g>
</g>
<g>
</g>
<g>
</g>
<g>
</g>
<g>
</g>
<g>
</g>
<g>
</g>
</svg>
