<?xml version="1.0" encoding="iso-8859-1"?>
<!-- Generator: Adobe Illustrator 16.0.0, SVG Export Plug-In . SVG Version: 6.00 Build 0)  -->
<!DOCTYPE svg PUBLIC "-//W3C//DTD SVG 1.1//EN" "http://www.w3.org/Graphics/SVG/1.1/DTD/svg11.dtd">
<svg version="1.1" id="Capa_1" xmlns="http://www.w3.org/2000/svg" xmlns:xlink="http://www.w3.org/1999/xlink" x="0px" y="0px"
	 width="71.379px" height="71.379px" viewBox="0 0 71.379 71.379" style="enable-background:new 0 0 71.379 71.379;"
	 xml:space="preserve">
<g>
	<path  style="fill:#334D5C;" d="M37.488,18.038h2.098c-0.017-0.29-0.023-0.591-0.023-0.896c0-0.265,0.007-0.53,0.023-0.795H37.04l0.443-1.518h2.27
		c0.246-1.306,0.698-2.436,1.359-3.391c1.116-1.613,2.651-2.42,4.617-2.42c1.672,0,2.968,0.526,3.887,1.574
		c0.929,1.049,1.439,2.245,1.542,3.575h-1.745c-0.193-1.012-0.586-1.813-1.179-2.407c-0.591-0.595-1.414-0.892-2.482-0.892
		c-1.307,0-2.36,0.546-3.156,1.64c-0.443,0.6-0.763,1.371-0.954,2.321h5.972l-0.444,1.518h-5.737
		c-0.024,0.36-0.031,0.746-0.031,1.154c0,0.185,0.002,0.363,0.007,0.535h6.206l-0.444,1.521h-5.598
		c0.169,0.933,0.477,1.743,0.915,2.427c0.716,1.141,1.797,1.713,3.228,1.713c1.322,0,2.329-0.604,3.018-1.809
		c0.367-0.633,0.634-1.469,0.816-2.501h1.745c-0.157,1.656-0.673,3.044-1.554,4.162c-1.047,1.351-2.463,2.021-4.238,2.021
		c-1.53,0-2.819-0.551-3.863-1.656c-0.983-1.045-1.615-2.495-1.894-4.357h-2.7L37.488,18.038z M34.077,34.798h19.989
		c-0.248,0.103-0.499,0.201-0.745,0.29c-6.515,2.366-13.575,4.929-19.513,7.183c0.108,3.178-0.235,6.279-0.645,9.718
		c-0.109,0.917-0.33,2.349-0.04,2.995c2.198-0.685,4.671-0.389,6.71,1.028c3.499,2.443,4.354,7.247,1.916,10.751
		c-2.128,3.05-6.068,4.094-9.358,2.689c-0.247-0.08-0.497-0.172-0.74-0.271c-0.542-0.379-1.079-0.751-1.611-1.125
		c-1.341-1.359-2.537-3.639-2.434-5.73c0.074-1.544,0.642-3.284,1.052-4.949c1.186-4.827,1.263-9.576-0.724-13.808
		c-4.665-0.403-9.091,1.312-13.21,4.095c-1.422,0.958-2.857,2.094-4.279,2.7c-1.931,0.821-4.482,0.486-6.22-0.301
		C3.69,49.69,3.153,49.314,2.611,48.94c-0.185-0.196-0.35-0.396-0.511-0.603c-2.456-2.601-2.841-6.66-0.713-9.708
		c2.438-3.499,7.25-4.355,10.748-1.921c2.032,1.417,3.172,3.644,3.289,5.936c0.707,0.05,1.978-0.646,2.793-1.067
		c3.085-1.578,8.888-3.962,8.888-3.962s0.032-13.872,0-20.794c-0.022-3.828,1.034-8.832,5.526-10.507
		C32.844,6.263,33.139,6.2,33.139,6.2v28.912C33.136,35.108,33.478,34.996,34.077,34.798z M10.131,39.581
		c-1.914-1.33-4.544-0.864-5.875,1.047C2.922,42.54,3.394,45.167,5.308,46.5c1.91,1.336,4.538,0.866,5.871-1.05
		C12.509,43.539,12.041,40.911,10.131,39.581z M31.956,59.939c-1.331,1.912-0.863,4.537,1.049,5.872
		c1.913,1.332,4.541,0.861,5.877-1.045c1.331-1.909,0.861-4.537-1.051-5.876C35.918,57.554,33.288,58.023,31.956,59.939z
		 M18.759,33.283h7.038c0.007-4.657,0.012-11.999-0.007-16.46c-0.033-5.94,2.294-10.224,6.381-11.742l0.642-0.243l1.638-0.495v7.855
		c1.906-3.963,5.922-6.723,10.618-6.723c6.528,0,11.818,5.296,11.818,11.822c0,6.528-5.29,11.822-11.818,11.822
		c-4.696,0-8.71-2.761-10.618-6.72v10.884h36.928V1.312H18.761L18.759,33.283L18.759,33.283z"/>
</g>
<g>
</g>
<g>
</g>
<g>
</g>
<g>
</g>
<g>
</g>
<g>
</g>
<g>
</g>
<g>
</g>
<g>
</g>
<g>
</g>
<g>
</g>
<g>
</g>
<g>
</g>
<g>
</g>
<g>
</g>
</svg>
