<?xml version="1.0" encoding="iso-8859-1"?>
<!-- Generator: Adobe Illustrator 16.0.0, SVG Export Plug-In . SVG Version: 6.00 Build 0)  -->
<!DOCTYPE svg PUBLIC "-//W3C//DTD SVG 1.1//EN" "http://www.w3.org/Graphics/SVG/1.1/DTD/svg11.dtd">
<svg version="1.1" id="Capa_1" xmlns="http://www.w3.org/2000/svg" xmlns:xlink="http://www.w3.org/1999/xlink" x="0px" y="0px"
	 width="496.882px" height="496.883px" viewBox="0 0 496.882 496.883" style="enable-background:new 0 0 496.882 496.883;"
	 xml:space="preserve">
<g>
	<g id="Layer_8_14_">
		<path d="M260.118,331.44c-10.089,10.095-20.173,20.179-30.263,30.263H15.131C6.773,361.703,0,354.93,0,346.572V114.456
			c0-8.358,6.773-15.132,15.131-15.132H486.42c1.726,0,3.375,0.357,4.918,0.884c-20.842,20.848-41.695,41.697-62.542,62.542
			c-4.108-5.778-6.543-12.823-6.543-20.457c0-4.478,0.874-8.757,2.399-12.711H75.989c1.519,3.949,2.391,8.228,2.391,12.711
			c0,19.556-15.85,35.414-35.405,35.414c-4.486,0-8.766-0.872-12.717-2.396v108.075c3.951-1.525,8.225-2.399,12.717-2.399
			c19.556,0,35.405,15.853,35.405,35.423c0,5.385-1.232,10.468-3.381,15.019h185.119V331.44z M457.504,211.269
			c1.75-0.216,3.476-0.521,5.154-0.981l-13.547,107.896c-3.948-2.259-8.394-3.795-13.182-4.403
			c-19.41-2.441-37.107,11.312-39.555,30.724c-0.662,5.331-0.07,10.521,1.49,15.321L284.58,345.591
			c-11.266,8.76-22.538,17.507-33.795,26.267l203.623,25.582c8.287,1.041,15.853-4.847,16.893-13.134l25.582-203.625
			C483.743,190.885,470.626,201.069,457.504,211.269z M323.662,177.908h-32.167c16.609,12.315,27.427,32.01,27.427,54.272
			c0,20.351-9.044,38.55-23.271,50.944h12.784l-33.289,33.29h-97.253v-33.29h29.11c-14.227-12.4-23.265-30.605-23.265-50.944
			c0-22.263,10.817-41.958,27.423-54.272h-33.269v-33.29h145.769V177.908z M288.239,265.334c0-14.735-9.328-27.257-22.391-32.075
			c6.874-4.468,11.438-12.191,11.438-20.998c0-13.816-11.219-25.026-25.038-25.026c-13.816,0-25.026,11.21-25.026,25.026
			c0,9.4,5.175,17.563,12.833,21.843c-11.931,5.353-20.253,17.304-20.253,31.218L288.239,265.334L288.239,265.334z"/>
	</g>
</g>
<g>
</g>
<g>
</g>
<g>
</g>
<g>
</g>
<g>
</g>
<g>
</g>
<g>
</g>
<g>
</g>
<g>
</g>
<g>
</g>
<g>
</g>
<g>
</g>
<g>
</g>
<g>
</g>
<g>
</g>
</svg>
