<?xml version="1.0" encoding="iso-8859-1"?>
<!-- Generator: Adobe Illustrator 19.0.0, SVG Export Plug-In . SVG Version: 6.00 Build 0)  -->
<svg version="1.1" id="Layer_1" xmlns="http://www.w3.org/2000/svg" xmlns:xlink="http://www.w3.org/1999/xlink" x="0px" y="0px"
	 viewBox="0 0 512 512" style="enable-background:new 0 0 512 512;" xml:space="preserve">
<g>
	<path style="fill:#95D9FF;" d="M362.01,53.737c34.725,0,63.972,23.378,72.912,55.247c4.368-1.171,8.956-1.806,13.694-1.806
		c29.083,0,52.666,23.536,52.747,52.6H246.547c0.073-25.662,18.469-47.002,42.794-51.648
		C298.561,76.698,327.596,53.737,362.01,53.737z"/>
	<path style="fill:#95D9FF;" d="M72.932,10.498c18.792,0,34.619,12.651,39.458,29.898c2.364-0.634,4.847-0.977,7.411-0.977
		c15.738,0,28.501,12.737,28.545,28.466H10.447c0.04-13.887,9.996-25.436,23.159-27.951C38.595,22.924,54.308,10.498,72.932,10.498z
		"/>
</g>
<g>
	<path style="fill:#FEBBA0;" d="M161.978,199.169v-30.44c0-51.825,42.013-93.838,93.838-93.838
		c51.826,0,93.838,42.013,93.838,93.838h0.368v30.44c12.924,0,23.401,10.477,23.401,23.401c0,12.924-10.477,23.401-23.401,23.401
		v17.47c-1.126,14.733-8.31,27.85-19.19,35.035l-56.569,32.339c-11.359,7.502-25.171,7.502-36.53,0l-56.399-32.339
		c-10.878-7.184-18.231-20.301-19.358-35.035v-17.47c-12.924,0-23.401-10.477-23.401-23.401
		C138.577,209.646,149.054,199.169,161.978,199.169z"/>
	<path style="fill:#FEBBA0;" d="M298.106,319.113v20.351c0,6.799,4.088,12.931,10.364,15.547l67.234,28.013
		c14.205,5.919,23.456,22.005,23.456,37.394v81.084H112.838v-81.084c0-15.387,9.253-31.475,23.456-37.394l67.234-28.013
		c6.276-2.615,10.364-8.748,10.364-15.547v-20.351H298.106z"/>
</g>
<path style="fill:#36B446;" d="M136.294,383.025l67.234-28.013c1.989-0.828,3.757-2.013,5.245-3.458l47.128,22.484l47.227-22.583
	c1.51,1.489,3.307,2.71,5.342,3.557l67.234,28.013c14.205,5.919,23.456,22.005,23.456,37.394v81.084H112.838v-81.084
	C112.838,405.03,122.092,388.942,136.294,383.025z"/>
<g>
	<path style="fill:#FFFFFF;" d="M161.896,280.425c4.573,3.171,6.089,3.855,13.767,3.855c18.028,0,31.256-23.517,54.82-23.517
		c6.554,0,15.601,2.528,25.486,11.331c9.885-8.803,18.932-11.331,25.486-11.331c23.564,0,36.793,23.517,54.82,23.517
		c7.677,0,9.194-0.684,13.767-3.855c5.023-3.483,5.406,0.083,4.56,2.822c-4.895,13.291-23.263,35.952-48.428,35.952
		c-23.212,0-39.018-6.122-50.207-19.74c-11.189,13.619-26.995,19.74-50.207,19.74c-25.164,0-43.532-22.662-48.428-35.952
		C156.49,280.507,156.874,276.942,161.896,280.425z"/>
	<path style="fill:#FFFFFF;" d="M255.789,442.145c-19.076-13.538-44.944-90.459-44.944-90.459s-8.593,16.615-5.516,39.368
		c-32.614-34.476-30.585-83.999-30.585-83.999l81.202-7.596l81.046,7.596c0,0,2.029,49.525-30.585,83.999
		c3.077-22.753-5.516-39.368-5.516-39.368s-25.868,76.92-44.944,90.459"/>
</g>
<path d="M148.346,78.331H10.447c-2.776,0-5.438-1.105-7.397-3.07C1.09,73.295-0.008,70.63,0,67.855
	c0.047-16.511,10.507-31.002,25.612-36.517C33.599,12.654,52.277,0.051,72.933,0.051c19.844,0,37.749,11.529,46.243,28.926
	c0.208-0.003,0.416-0.005,0.626-0.005c21.439,0,38.931,17.442,38.992,38.882c0.008,2.776-1.09,5.441-3.049,7.406
	C153.784,77.227,151.122,78.331,148.346,78.331z M24.275,57.437H134.51c-3.29-4.581-8.662-7.572-14.709-7.572
	c-1.587,0-3.17,0.209-4.706,0.621c-5.528,1.48-11.217-1.759-12.763-7.269c-3.679-13.114-15.77-22.273-29.4-22.273
	c-13.466,0-25.514,9.018-29.302,21.929c-1.103,3.759-4.215,6.586-8.064,7.32C30.884,51.089,26.904,53.765,24.275,57.437z
	 M33.606,39.933h0.01H33.606z"/>
<path d="M296.576,467.027h-0.137c-5.769,0-10.447-4.677-10.447-10.447c0-5.77,4.678-10.447,10.447-10.447h0.137
	c5.769,0,10.447,4.677,10.447,10.447C307.023,462.35,302.345,467.027,296.576,467.027z"/>
<path d="M369.567,467.026h-39.195c-5.769,0-10.447-4.677-10.447-10.447s4.678-10.447,10.447-10.447h39.195
	c5.769,0,10.447,4.677,10.447,10.447S375.336,467.026,369.567,467.026z"/>
<path d="M296.576,427.851h-0.137c-5.769,0-10.447-4.677-10.447-10.447c0-5.77,4.678-10.447,10.447-10.447h0.137
	c5.769,0,10.447,4.677,10.447,10.447C307.023,423.174,302.345,427.851,296.576,427.851z"/>
<path d="M501.502,511.949h-0.137c-5.769,0-10.447-4.677-10.447-10.447c0-5.77,4.678-10.447,10.447-10.447h0.137
	c5.769,0,10.447,4.677,10.447,10.447C511.949,507.272,507.271,511.949,501.502,511.949z"/>
<path d="M10.635,511.948h-0.137c-5.769,0-10.447-4.677-10.447-10.447s4.678-10.447,10.447-10.447h0.137
	c5.769,0,10.447,4.677,10.447,10.447S16.404,511.948,10.635,511.948z"/>
<path d="M217.9,235.477c-6.438,0-11.676-5.238-11.676-11.676c0-6.439,5.238-11.678,11.676-11.678s11.678,5.238,11.678,11.678
	C229.578,230.239,224.339,235.477,217.9,235.477z"/>
<path d="M294.1,235.477c-6.438,0-11.678-5.238-11.678-11.676c0-6.439,5.239-11.678,11.678-11.678s11.676,5.238,11.676,11.678
	C305.775,230.239,300.538,235.477,294.1,235.477z"/>
<path d="M297.456,132.727c-2.432,0-4.876-0.844-6.854-2.567c-9.6-8.354-21.889-12.955-34.603-12.955
	c-12.714,0-25.004,4.601-34.603,12.955c-4.351,3.787-10.951,3.329-14.737-1.023c-3.788-4.352-3.33-10.951,1.023-14.738
	c13.402-11.665,30.563-18.088,48.319-18.088s34.917,6.424,48.319,18.088c4.352,3.787,4.81,10.386,1.023,14.738
	C303.276,131.512,300.373,132.727,297.456,132.727z"/>
<path d="M283.731,161.348c-2.432,0-4.876-0.844-6.854-2.567c-5.793-5.041-13.208-7.816-20.877-7.816
	c-7.669,0-15.084,2.776-20.877,7.816c-4.351,3.788-10.951,3.33-14.738-1.023c-3.787-4.352-3.329-10.95,1.023-14.738
	c9.597-8.351,21.881-12.95,34.593-12.95c12.712,0,24.997,4.599,34.593,12.95c4.352,3.787,4.81,10.386,1.023,14.738
	C289.55,160.133,286.648,161.348,283.731,161.348z"/>
<path d="M448.617,96.732c-2.252,0-4.502,0.12-6.738,0.36c-13.036-32.104-44.627-53.803-79.867-53.803
	c-25.023,0-48.723,10.944-65.004,29.642c-12.643-5.457-26.569-8.488-41.19-8.488c-57.503,0-104.285,46.782-104.285,104.285v21.643
	c-13.566,4.413-23.4,17.179-23.4,32.198c0,15.02,9.834,27.786,23.4,32.198v16.03c-0.007,0.005-0.016,0.01-0.022,0.016
	c-4.501,3.294-6.092,9.239-4.155,15.515c0.054,0.178,0.114,0.354,0.179,0.529c2.843,7.718,8.678,16.803,16.769,24.613
	c0.204,8.206,1.524,25.718,8.406,45.065l-40.432,16.847c-17.596,7.332-29.884,26.674-29.884,47.036v70.637H75.218V274.719
	c0-20.737-16.871-37.609-37.609-37.609S0,253.981,0,274.719v26.652c0,5.77,4.678,10.447,10.447,10.447s10.447-4.677,10.447-10.447
	v-26.652c0-9.216,7.499-16.715,16.715-16.715s16.715,7.498,16.715,16.715v216.336h-9.892c-5.769,0-10.447,4.677-10.447,10.447
	c0,5.77,4.678,10.447,10.447,10.447h423.136c5.769,0,10.447-4.677,10.447-10.447c0-5.77-4.678-10.447-10.447-10.447h-57.959v-70.637
	c0-20.364-12.29-39.705-29.884-47.037l-40.662-16.943c6.797-19.153,8.147-36.489,8.367-44.763
	c8.201-7.855,14.112-17.033,16.98-24.818c0.065-0.177,0.124-0.354,0.18-0.534c1.93-6.256,0.35-12.181-4.117-15.48v-16.076
	c13.566-4.413,23.4-17.179,23.4-32.198c0-15.019-9.834-27.786-23.4-32.198v-20.146h140.896c2.776,0,5.438-1.105,7.397-3.07
	s3.058-4.63,3.049-7.406C511.713,125.001,483.364,96.732,448.617,96.732z M245.502,491.055H123.286v-70.637
	c0-11.775,7.32-23.705,17.027-27.75l40.956-17.065c4.314,7.787,9.71,15.483,16.472,22.631c3.118,3.295,8.003,4.201,12.096,2.245
	c2.873-1.374,4.894-3.94,5.632-6.903c8.47,20.246,19.41,42.616,30.034,53.406v44.073H245.502z M177.069,294.696
	c11.014-0.481,19.742-6.546,28.192-12.418c8.19-5.691,15.925-11.067,25.222-11.067c3.281,0,10.053,1.128,18.539,8.686
	c3.96,3.527,9.935,3.527,13.895,0c8.486-7.557,15.258-8.686,18.539-8.686c9.296,0,17.032,5.376,25.222,11.067
	c8.45,5.873,17.177,11.938,28.192,12.418c-7.052,7.48-17.085,14.056-28.694,14.056c-20.09,0-33.085-4.912-42.134-15.925
	c-1.984-2.415-4.946-3.815-8.072-3.815s-6.087,1.4-8.072,3.815c-9.049,11.013-22.044,15.925-42.134,15.925
	C194.153,308.753,184.119,302.176,177.069,294.696z M220.748,348.356c-1.337-3.975-4.924-6.765-9.106-7.086
	c-4.166-0.322-8.15,1.891-10.076,5.616c-0.205,0.397-2.692,5.297-4.716,13.28c-5.845-12.25-8.775-24.542-10.24-34.169
	c5.94,2.289,12.357,3.648,19.151,3.648c21.538,0,37.791-4.924,50.207-15.358c12.416,10.434,28.667,15.358,50.207,15.358
	c6.731,0,13.091-1.333,18.985-3.583c-1.454,9.622-4.386,21.9-10.264,34.157c-2.026-8.015-4.522-12.936-4.728-13.333
	c-1.926-3.724-5.902-5.936-10.077-5.616c-4.182,0.321-7.767,3.111-9.104,7.086c-8.644,25.704-23.818,62.744-35.119,78.676
	C244.573,411.102,229.397,374.061,220.748,348.356z M371.688,392.668c9.706,4.044,17.026,15.974,17.026,27.75v70.637H266.396
	v-44.237c10.573-10.853,21.444-33.1,29.871-53.242c0.738,2.963,2.759,5.53,5.633,6.903c4.09,1.957,8.979,1.049,12.095-2.245
	c6.787-7.175,12.199-14.904,16.521-22.721L371.688,392.668z M362.975,222.57c0,7.143-5.812,12.953-12.953,12.953
	c-5.769,0-10.447,4.677-10.447,10.447v27.809c-0.801,0.052-1.828,0.054-3.298,0.054c-5.138,0-10.947-4.038-17.676-8.713
	c-9.49-6.595-21.302-14.803-37.145-14.803c-6.247,0-15.299,1.622-25.486,8.537c-10.188-6.915-19.239-8.537-25.486-8.537
	c-15.843,0-27.655,8.208-37.146,14.804c-6.727,4.675-12.536,8.713-17.674,8.713c-1.434,0-2.446-0.001-3.239-0.05v-27.813
	c0-5.77-4.678-10.447-10.447-10.447c-7.143,0-12.953-5.812-12.953-12.953c0-7.141,5.812-12.953,12.953-12.953
	c5.769,0,10.447-4.677,10.447-10.447v-30.44c0-45.982,37.409-83.391,83.391-83.391s83.759,37.409,83.759,83.391
	c0,0.954,0,30.44,0,30.44c0,5.77,4.678,10.447,10.447,10.447C357.165,209.616,362.975,215.427,362.975,222.57z M358.286,149.332
	c-5.122-27.118-20.773-50.558-42.531-65.894c12.157-12.204,28.782-19.255,46.257-19.255c29.142,0,54.988,19.584,62.854,47.622
	c1.545,5.511,7.238,8.749,12.765,7.269c3.585-0.961,7.281-1.449,10.988-1.449c19.643,0,36.233,13.498,40.955,31.706H358.286z"/>
<path d="M472.195,347.91h-5.219v-5.22c0-5.77-4.678-10.447-10.447-10.447c-5.769,0-10.447,4.677-10.447,10.447v5.22h-5.219
	c-5.769,0-10.447,4.677-10.447,10.447c0,5.77,4.678,10.447,10.447,10.447h5.219v5.219c0,5.77,4.678,10.447,10.447,10.447
	c5.769,0,10.447-4.677,10.447-10.447v-5.219h5.219c5.769,0,10.447-4.677,10.447-10.447
	C482.642,352.587,477.965,347.91,472.195,347.91z"/>
<path d="M501.553,215.987h-5.219v-5.219c0-5.77-4.678-10.447-10.447-10.447c-5.769,0-10.447,4.677-10.447,10.447v5.219h-5.219
	c-5.769,0-10.447,4.677-10.447,10.447c0,5.77,4.678,10.447,10.447,10.447h5.219v5.22c0,5.77,4.678,10.447,10.447,10.447
	c5.769,0,10.447-4.677,10.447-10.447v-5.22h5.219c5.769,0,10.447-4.677,10.447-10.447C512,220.664,507.322,215.987,501.553,215.987z
	"/>
<path d="M104.294,157.36h-5.219v-5.219c0-5.77-4.678-10.447-10.447-10.447s-10.447,4.677-10.447,10.447v5.219h-5.219
	c-5.769,0-10.447,4.677-10.447,10.447c0,5.77,4.678,10.447,10.447,10.447h5.219v5.219c0,5.77,4.678,10.447,10.447,10.447
	s10.447-4.677,10.447-10.447v-5.219h5.219c5.769,0,10.447-4.677,10.447-10.447C114.741,162.038,110.064,157.36,104.294,157.36z"/>
<g>
</g>
<g>
</g>
<g>
</g>
<g>
</g>
<g>
</g>
<g>
</g>
<g>
</g>
<g>
</g>
<g>
</g>
<g>
</g>
<g>
</g>
<g>
</g>
<g>
</g>
<g>
</g>
<g>
</g>
</svg>
