<?xml version="1.0" encoding="iso-8859-1"?>
<!-- Generator: Adobe Illustrator 19.0.0, SVG Export Plug-In . SVG Version: 6.00 Build 0)  -->
<svg version="1.1" id="Layer_1" xmlns="http://www.w3.org/2000/svg" xmlns:xlink="http://www.w3.org/1999/xlink" x="0px" y="0px"
	 viewBox="0 0 503.467 503.467" style="enable-background:new 0 0 503.467 503.467;" xml:space="preserve">
<g transform="translate(1 13)">
	<path style="fill:#50DD8E;" d="M3.267,281.4v-34.133V110.733c0-5.973,0.853-11.947,2.56-17.067h1.707H462.36
		c1.707,5.12,2.56,11.093,2.56,17.067v238.933H225.987c0-28.16-23.04-51.2-51.2-51.2c-28.16,0-51.2,23.04-51.2,51.2h-102.4
		c-9.387,0-17.067-7.68-17.067-17.067v-51.2H3.267z M461.507,93.667H6.68H4.973c7.68-29.867,34.133-51.2,66.56-51.2H395.8
		C428.227,42.467,454.68,63.8,461.507,93.667z"/>
	<path style="fill:#E4F2DE;" d="M139.8,153.4v68.267c0,4.267-4.267,8.533-8.533,8.533h-51.2c-4.267,0-8.533-4.267-8.533-8.533V153.4
		c0-4.267,4.267-8.533,8.533-8.533h51.2C135.533,144.867,139.8,149.133,139.8,153.4z M310.467,247.267V153.4
		c0-4.267,3.413-8.533,8.533-8.533h68.267c5.12,0,8.533,4.267,8.533,8.533v196.267h-85.333V247.267z M259.267,153.4v68.267
		c0,4.267-3.413,8.533-8.533,8.533h-51.2c-5.12,0-8.533-4.267-8.533-8.533V153.4c0-4.267,3.413-8.533,8.533-8.533h51.2
		C255.853,144.867,259.267,149.133,259.267,153.4z"/>
	<path style="fill:#AE938D;" d="M173.933,298.467c28.16,0,51.2,23.04,51.2,51.2c0,28.16-23.04,51.2-51.2,51.2
		c-28.16,0-51.2-23.04-51.2-51.2C122.733,321.507,145.773,298.467,173.933,298.467"/>
	<path style="fill:#E4F2DE;" d="M173.933,332.6c9.387,0,17.067,7.68,17.067,17.067s-7.68,17.067-17.067,17.067
		c-9.387,0-17.067-7.68-17.067-17.067S164.547,332.6,173.933,332.6"/>
</g>
<path style="fill:#51565F;" d="M499.2,452.267H362.667c-2.56,0-4.267-1.707-4.267-4.267c0-2.56,1.707-4.267,4.267-4.267H499.2
	c2.56,0,4.267,1.707,4.267,4.267C503.467,450.56,501.76,452.267,499.2,452.267z M328.533,452.267h-17.067
	c-2.56,0-4.267-1.707-4.267-4.267c0-2.56,1.707-4.267,4.267-4.267h17.067c2.56,0,4.267,1.707,4.267,4.267
	C332.8,450.56,331.093,452.267,328.533,452.267z M260.267,452.267h-85.333c-2.56,0-4.267-1.707-4.267-4.267
	c0-2.56,1.707-4.267,4.267-4.267h85.333c2.56,0,4.267,1.707,4.267,4.267C264.533,450.56,262.827,452.267,260.267,452.267z
	 M123.733,452.267H4.267C1.707,452.267,0,450.56,0,448c0-2.56,1.707-4.267,4.267-4.267h119.467c2.56,0,4.267,1.707,4.267,4.267
	C128,450.56,126.293,452.267,123.733,452.267z M174.933,418.133c-30.72,0-55.467-24.747-55.467-55.467s24.747-55.467,55.467-55.467
	c29.013,0,52.907,22.187,55.467,51.2h268.8c2.56,0,4.267,1.707,4.267,4.267s-1.707,4.267-4.267,4.267H230.4
	C227.84,395.947,203.947,418.133,174.933,418.133z M174.933,315.733c-25.6,0-46.933,21.333-46.933,46.933
	s21.333,46.933,46.933,46.933s46.933-21.333,46.933-46.933S200.533,315.733,174.933,315.733z M174.933,384
	c-11.947,0-21.333-9.387-21.333-21.333s9.387-21.333,21.333-21.333c11.947,0,21.333,9.387,21.333,21.333S186.88,384,174.933,384z
	 M174.933,349.867c-6.827,0-12.8,5.973-12.8,12.8s5.973,12.8,12.8,12.8c6.827,0,12.8-5.973,12.8-12.8
	S181.76,349.867,174.933,349.867z M93.867,366.933H21.333C9.387,366.933,0,357.547,0,345.6V123.733
	C0,82.773,31.573,51.2,72.533,51.2H396.8c40.96,0,72.533,31.573,72.533,72.533v204.8c0,2.56-1.707,4.267-4.267,4.267
	s-4.267-1.707-4.267-4.267v-204.8c0-35.84-28.16-64-64-64H72.533c-35.84,0-64,28.16-64,64V256h12.8c2.56,0,4.267,1.707,4.267,4.267
	c0,2.56-1.707,4.267-4.267,4.267h-12.8v25.6h12.8c2.56,0,4.267,1.707,4.267,4.267c0,2.56-1.707,4.267-4.267,4.267h-12.8V345.6
	c0,6.827,5.973,12.8,12.8,12.8h72.533c2.56,0,4.267,1.707,4.267,4.267S96.427,366.933,93.867,366.933z M396.8,332.8
	c-2.56,0-4.267-1.707-4.267-4.267V166.4c0-2.56-1.707-4.267-4.267-4.267H320c-2.56,0-4.267,1.707-4.267,4.267V256h12.8
	c2.56,0,4.267,1.707,4.267,4.267c0,2.56-1.707,4.267-4.267,4.267h-12.8v64c0,2.56-1.707,4.267-4.267,4.267s-4.267-1.707-4.267-4.267
	V166.4c0-6.827,5.973-12.8,12.8-12.8h68.267c6.827,0,12.8,5.973,12.8,12.8v162.133C401.067,331.093,399.36,332.8,396.8,332.8z
	 M251.733,247.467h-51.2c-6.827,0-12.8-5.973-12.8-12.8V166.4c0-6.827,5.973-12.8,12.8-12.8h51.2c6.827,0,12.8,5.973,12.8,12.8
	v68.267C264.533,241.493,258.56,247.467,251.733,247.467z M200.533,162.133c-2.56,0-4.267,1.707-4.267,4.267v68.267
	c0,2.56,1.707,4.267,4.267,4.267h51.2c2.56,0,4.267-1.707,4.267-4.267V166.4c0-2.56-1.707-4.267-4.267-4.267H200.533z
	 M132.267,247.467h-51.2c-6.827,0-12.8-5.973-12.8-12.8V166.4c0-6.827,5.973-12.8,12.8-12.8h51.2c6.827,0,12.8,5.973,12.8,12.8
	v68.267C145.067,241.493,139.093,247.467,132.267,247.467z M81.067,162.133c-2.56,0-4.267,1.707-4.267,4.267v68.267
	c0,2.56,1.707,4.267,4.267,4.267h51.2c2.56,0,4.267-1.707,4.267-4.267V166.4c0-2.56-1.707-4.267-4.267-4.267H81.067z
	 M428.373,110.933H40.96c-2.56,0-4.267-1.707-4.267-4.267S38.4,102.4,40.96,102.4h387.413c2.56,0,4.267,1.707,4.267,4.267
	S430.933,110.933,428.373,110.933z"/>
<g>
</g>
<g>
</g>
<g>
</g>
<g>
</g>
<g>
</g>
<g>
</g>
<g>
</g>
<g>
</g>
<g>
</g>
<g>
</g>
<g>
</g>
<g>
</g>
<g>
</g>
<g>
</g>
<g>
</g>
</svg>
