<?xml version="1.0" encoding="utf-8"?>
<svg width="112" height="93" viewBox="0 0 112 93" fill="none" xmlns="http://www.w3.org/2000/svg">
  <path d="M43.1959 60.0612H12.1479V62.1846H43.1959V60.0612Z" style="fill: rgb(206, 156, 45);"/>
  <path d="M12.1479 89.4618H43.1959V84.4812V62.1844H12.1479V89.4618Z" style="fill: rgb(91, 189, 200);"/>
  <path d="M9.45557 56.6943H45.8874L27.6715 44.2726L9.45557 56.6943Z" style="fill: rgb(206, 156, 45);"/>
  <path d="M40.5138 72.7067H34.3828V80.6478H40.5138V72.7067Z" fill="#F5F6FA"/>
  <path d="M20.9611 72.7067H14.8301V80.6478H20.9611V72.7067Z" fill="#F5F6FA"/>
  <path d="M29.7487 69.6435C30.897 68.4948 30.897 66.6324 29.7486 65.4837C28.6003 64.335 26.7384 64.335 25.59 65.4837C24.4417 66.6324 24.4417 68.4948 25.59 69.6435C26.7384 70.7922 28.6003 70.7922 29.7487 69.6435Z" fill="#F5F6FA"/>
  <path d="M31.6415 75.0734H23.7026V89.1474H31.6415V75.0734Z" fill="#F5F6FA"/>
  <path d="M20.9678 19.0343H103.346V9.98627H32.2898L20.9678 19.0343ZM73.399 12.0702H83.6643H101.262V16.9503H83.5534H73.4343H27.2968L33.6306 12.0702H73.399Z" fill="#F5F6FA"/>
  <path d="M101.385 24.9634H97.0798V18.7767H95.1196V27.1063H103.346V18.7767H101.385V24.9634Z" style="fill: rgb(206, 156, 45);"/>
  <path d="M80.6217 1.31116H76.4165V9.98628H80.6217V1.31116Z" fill="#F5F6FA"/>
  <path d="M26.2786 24.1573L24.5522 27.1483L26.2786 30.1392H29.7312L31.4575 27.1483L29.7312 24.1573H26.2786Z" fill="#E1E1E5"/>
  <path d="M83.385 10.3714H73.6543V82.5204H83.385V10.3714Z" fill="#F5F6FA"/>
  <path d="M84.3488 81.5978H72.6896C69.7143 81.5978 67.3022 84.0105 67.3022 86.9867H89.7362C89.7362 84.0105 87.3242 81.5978 84.3488 81.5978Z" fill="#F5F6FA"/>
  <path d="M52.1818 87.462C51.9511 87.462 51.732 87.5108 51.5337 87.5982C51.5897 87.4128 51.6201 87.2162 51.6201 87.0125C51.6201 85.8954 50.7148 84.9898 49.598 84.9898C48.8679 84.9898 48.2283 85.377 47.8728 85.9572C47.8745 85.9221 47.8755 85.8868 47.8755 85.8513C47.8755 84.6514 46.9031 83.6787 45.7036 83.6787C44.7277 83.6787 43.9021 84.3226 43.6283 85.2088C43.3043 84.7373 42.7615 84.4279 42.1462 84.4279C41.1535 84.4279 40.3487 85.2328 40.3487 86.2259C40.3487 86.3563 40.363 86.4832 40.3893 86.6057C40.1905 86.5299 39.975 86.4881 39.7496 86.4881C38.9804 86.4881 38.102 87.3496 38.5887 88.2486C37.4654 87.7991 36.3794 88.1786 36.3794 89.1476L53.792 89.0726C53.792 88.1831 53.0711 87.462 52.1818 87.462Z" style="fill: rgb(91, 189, 200);"/>
  <path d="M96.8489 62.3802C94.1898 62.3802 92.0342 66.3638 92.0342 71.2778C92.0342 76.1919 94.1898 80.1754 96.8489 80.1754C98.281 80.1754 99.567 79.02 100.449 77.186L101.655 70.745C101.506 66.0791 99.4112 62.3802 96.8489 62.3802Z" style="fill: rgb(206, 156, 45);"/>
  <path d="M104.146 82.5204C106.147 82.5204 107.769 79.5233 107.769 75.8262C107.769 72.1291 106.147 69.132 104.146 69.132C102.146 69.132 100.524 72.1291 100.524 75.8262C100.524 79.5233 102.146 82.5204 104.146 82.5204Z" style="fill: rgb(206, 156, 45);"/>
  <path d="M24.9205 6.15441H24.8296C24.7603 4.78015 23.6243 3.68726 22.2332 3.68726C21.2894 3.68726 20.4632 4.19033 20.0077 4.94297C19.6957 4.80034 19.3489 4.72077 18.9835 4.72077C17.6213 4.72077 16.5171 5.82534 16.5171 7.18792L20.1843 9.66351H24.9205C25.8852 9.66351 26.6745 8.87398 26.6745 7.90899C26.6745 6.944 25.8852 6.15441 24.9205 6.15441Z" style="fill: rgb(91, 189, 200);"/>
  <path d="M17.7178 7.69203C17.3524 7.69203 17.0056 7.77167 16.6937 7.91423C16.2382 7.16159 15.4119 6.65845 14.4681 6.65845C13.077 6.65845 11.9411 7.75134 11.8717 9.1256H11.7808C10.8161 9.1256 10.0269 9.91513 10.0269 10.8801C10.0269 11.8451 10.8161 12.6347 11.7808 12.6347H18.097C18.7693 12.6347 20.1842 12.3763 20.1842 10.1592C20.1843 8.7966 19.0801 7.69203 17.7178 7.69203Z" style="fill: rgb(91, 189, 200);"/>
  <path d="M53.6334 31.8163H53.5279C53.4473 30.2202 52.128 28.951 50.5125 28.951C49.4164 28.951 48.4568 29.5353 47.9279 30.4094C47.5656 30.2437 47.1629 30.1513 46.7385 30.1513C45.1565 30.1513 43.874 31.4342 43.874 33.0166C43.874 35.5916 45.5173 35.8917 46.2981 35.8917H53.6334C54.7538 35.8917 55.6705 34.9748 55.6705 33.854C55.6705 32.7333 54.7537 31.8163 53.6334 31.8163Z" style="fill: rgb(91, 189, 200);"/>
  <path d="M106.578 40.2224C106.072 40.2312 105.605 40.4031 105.229 40.6876C104.771 39.646 103.73 38.9185 102.519 38.9185C100.885 38.9185 99.5603 40.2437 99.5603 41.8785C99.5603 41.9057 99.5608 41.9328 99.5615 41.9599H99.5603C98.7657 41.9599 98.1216 42.6043 98.1216 43.3992C98.1216 44.194 98.7657 44.8385 99.5603 44.8385H102.519C102.519 44.8385 102.519 44.8385 102.519 44.8385H102.519H106.618H106.618H106.619H107.324C108.112 44.8385 109.205 44.6206 109.035 42.6117C108.926 41.3353 107.88 40.1998 106.578 40.2224Z" style="fill: rgb(91, 189, 200);"/>
  <path d="M 43.195 59.53 L 12.147 59.53 C 11.854 59.53 11.617 59.768 11.617 60.061 L 11.617 89.462 C 11.617 89.755 11.854 89.993 12.147 89.993 C 12.441 89.993 12.678 89.755 12.678 89.462 L 12.678 60.592 L 26.734 60.592 L 42.665 60.592 L 42.665 84.481 C 42.665 84.775 42.902 85.012 43.195 85.012 C 43.489 85.012 43.726 84.775 43.726 84.481 L 43.726 60.061 C 43.726 59.768 43.489 59.53 43.195 59.53 Z" fill="#1E243A"/>
  <path d="M42.7833 61.6538H12.5605C12.2674 61.6538 12.0298 61.8914 12.0298 62.1847C12.0298 62.478 12.2674 62.7156 12.5605 62.7156H42.7833C43.0764 62.7156 43.314 62.478 43.314 62.1847C43.314 61.8914 43.0764 61.6538 42.7833 61.6538Z" fill="#1E243A"/>
  <path d="M46.1862 56.2557L27.9703 43.8339C27.79 43.711 27.5528 43.711 27.3725 43.8339L9.15661 56.2557C8.96421 56.3869 8.87979 56.6283 8.94843 56.8508C9.01707 57.0734 9.2227 57.2252 9.45558 57.2252H45.8873C46.1202 57.2252 46.3258 57.0734 46.3945 56.8508C46.463 56.6283 46.3786 56.3869 46.1862 56.2557ZM11.1762 56.1635L27.6714 44.9151L44.1666 56.1635H11.1762Z" fill="#1E243A"/>
  <path d="M50.6801 49.6933C50.3877 49.7136 50.1672 49.9672 50.1876 50.2597C50.3438 52.5068 50.0733 54.7295 49.3834 56.8659C48.756 58.8091 47.8009 60.6144 46.5448 62.2314C46.3649 62.463 46.4068 62.7964 46.6382 62.9763C46.735 63.0515 46.8496 63.088 46.9635 63.088C47.1217 63.088 47.2783 63.0175 47.3829 62.8828C48.715 61.168 49.7279 59.2534 50.3935 57.1922C51.1252 54.9262 51.4122 52.569 51.2464 50.186C51.2261 49.8935 50.973 49.6717 50.6801 49.6933Z" fill="#1E243A"/>
  <path d="M49.7 62.4293L46.7405 62.605L46.5442 59.6456C46.5248 59.3531 46.2719 59.1308 45.9795 59.1511C45.687 59.1705 45.4657 59.4234 45.4851 59.716L45.7163 63.2012C45.7349 63.4816 45.968 63.6969 46.2453 63.6969C46.256 63.6969 46.2666 63.6967 46.2773 63.696L49.7629 63.489C50.0555 63.4716 50.2787 63.2203 50.2613 62.9276C50.2438 62.635 49.9924 62.4102 49.7 62.4293Z" fill="#1E243A"/>
  <path d="M5.95922 56.8673C5.26936 54.7309 4.99883 52.5083 5.15515 50.2611C5.17546 49.9686 4.95496 49.715 4.66257 49.6947C4.37039 49.6746 4.11664 49.8949 4.09633 50.1874C3.9306 52.5705 4.21762 54.9278 4.94923 57.1936C5.61475 59.2547 6.62764 61.1693 7.95981 62.8843C8.06447 63.019 8.22099 63.0894 8.37929 63.0894C8.49308 63.0894 8.60771 63.053 8.70458 62.9777C8.93605 62.7979 8.97787 62.4643 8.79806 62.2329C7.54175 60.6158 6.58667 58.8106 5.95922 56.8673Z" fill="#1E243A"/>
  <path d="M9.36279 59.151C9.07033 59.1301 8.8175 59.353 8.79811 59.6455L8.60181 62.6047L5.64224 62.429C5.35007 62.411 5.09836 62.6348 5.08102 62.9275C5.06369 63.2202 5.28673 63.4715 5.57934 63.4888L9.06502 63.6959C9.07571 63.6965 9.08639 63.6968 9.09694 63.6968C9.37426 63.6968 9.60742 63.4815 9.62603 63.2011L9.85728 59.716C9.8766 59.4232 9.65525 59.1704 9.36279 59.151Z" fill="#1E243A"/>
  <path d="M56.8054 88.9309H5.53853C5.24543 88.9309 5.00781 89.1685 5.00781 89.4618C5.00781 89.7551 5.24543 89.9927 5.53853 89.9927H56.8055C57.0986 89.9927 57.3362 89.7551 57.3362 89.4618C57.3362 89.1685 57.0986 88.9309 56.8054 88.9309Z" fill="#1E243A"/>
  <path d="M19.7618 91.2759H15.5952C15.3021 91.2759 15.0645 91.5135 15.0645 91.8067C15.0645 92.1 15.3021 92.3376 15.5952 92.3376H19.7618C20.0549 92.3376 20.2925 92.1 20.2925 91.8067C20.2925 91.5135 20.0549 91.2759 19.7618 91.2759Z" fill="#1E243A"/>
  <path d="M11.6961 91.2759H1.15083C0.857737 91.2759 0.620117 91.5135 0.620117 91.8067C0.620117 92.1 0.857737 92.3376 1.15083 92.3376H11.6961C11.9892 92.3376 12.2268 92.1 12.2268 91.8067C12.2268 91.5135 11.9893 91.2759 11.6961 91.2759Z" fill="#1E243A"/>
  <path d="M40.5128 72.1761H34.3818C34.0887 72.1761 33.8511 72.4138 33.8511 72.707V80.6482C33.8511 80.9415 34.0887 81.1791 34.3818 81.1791H40.5128C40.8059 81.1791 41.0435 80.9415 41.0435 80.6482V72.707C41.0435 72.4138 40.8059 72.1761 40.5128 72.1761ZM39.982 80.1174H34.9125V73.238H39.982V80.1174Z" fill="#1E243A"/>
  <path d="M40.277 76.6884H34.539C34.2459 76.6884 34.0083 76.926 34.0083 77.2193C34.0083 77.5125 34.2459 77.7502 34.539 77.7502H40.277C40.5701 77.7502 40.8077 77.5125 40.8077 77.2193C40.8077 76.926 40.5701 76.6884 40.277 76.6884Z" fill="#1E243A"/>
  <path d="M37.4087 72.3333C37.1156 72.3333 36.8779 72.5709 36.8779 72.8641V77.0622C36.8779 77.3555 37.1156 77.5931 37.4087 77.5931C37.7018 77.5931 37.9394 77.3555 37.9394 77.0622V72.8641C37.9394 72.5709 37.7018 72.3333 37.4087 72.3333Z" fill="#1E243A"/>
  <path d="M20.9601 72.1761H14.8291C14.536 72.1761 14.2983 72.4138 14.2983 72.707V80.6482C14.2983 80.9415 14.536 81.1791 14.8291 81.1791H20.9601C21.2532 81.1791 21.4908 80.9415 21.4908 80.6482V72.707C21.4908 72.4138 21.2532 72.1761 20.9601 72.1761ZM20.4293 80.1174H15.3598V73.238H20.4293V80.1174Z" fill="#1E243A"/>
  <path d="M20.7248 76.6884H14.9868C14.6937 76.6884 14.4561 76.926 14.4561 77.2193C14.4561 77.5125 14.6937 77.7502 14.9868 77.7502H20.7248C21.0179 77.7502 21.2555 77.5125 21.2555 77.2193C21.2555 76.926 21.0179 76.6884 20.7248 76.6884Z" fill="#1E243A"/>
  <path d="M17.8559 72.3333C17.5628 72.3333 17.3252 72.5709 17.3252 72.8641V77.0622C17.3252 77.3555 17.5628 77.5931 17.8559 77.5931C18.149 77.5931 18.3866 77.3555 18.3866 77.0622V72.8641C18.3866 72.5709 18.149 72.3333 17.8559 72.3333Z" fill="#1E243A"/>
  <path d="M27.671 64.0934C25.757 64.0934 24.1997 65.651 24.1997 67.5657C24.1997 69.4804 25.757 71.0381 27.671 71.0381C29.5851 71.0381 31.1423 69.4804 31.1423 67.5657C31.1423 65.651 29.5851 64.0934 27.671 64.0934ZM27.671 69.9763C26.3422 69.9763 25.2611 68.895 25.2611 67.5657C25.2611 66.2365 26.3422 65.1551 27.671 65.1551C28.9999 65.1551 30.0809 66.2364 30.0809 67.5657C30.0809 68.895 28.9999 69.9763 27.671 69.9763Z" fill="#1E243A"/>
  <path d="M30.4048 67.0347H24.9223C24.6292 67.0347 24.3916 67.2723 24.3916 67.5655C24.3916 67.8587 24.6292 68.0963 24.9223 68.0963H30.4048C30.6979 68.0963 30.9355 67.8587 30.9355 67.5655C30.9355 67.2723 30.6979 67.0347 30.4048 67.0347Z" fill="#1E243A"/>
  <path d="M31.6404 74.5425H23.7016C23.4085 74.5425 23.1709 74.7801 23.1709 75.0734V89.1473C23.1709 89.4406 23.4085 89.6782 23.7016 89.6782C23.9947 89.6782 24.2323 89.4406 24.2323 89.1473V75.6042H31.1097V89.1473C31.1097 89.4406 31.3473 89.6782 31.6404 89.6782C31.9335 89.6782 32.1712 89.4406 32.1712 89.1473V75.0734C32.1712 74.7801 31.9335 74.5425 31.6404 74.5425Z" fill="#1E243A"/>
  <path d="M26.6097 81.5404H25.352C25.0589 81.5404 24.8213 81.778 24.8213 82.0713C24.8213 82.3645 25.0589 82.6021 25.352 82.6021H26.6097C26.9028 82.6021 27.1404 82.3645 27.1404 82.0713C27.1404 81.778 26.9028 81.5404 26.6097 81.5404Z" fill="#1E243A"/>
  <path d="M27.8653 35.9743C27.6094 35.8312 27.2861 35.9229 27.1432 36.179L20.0416 48.9005C19.8987 49.1565 19.9903 49.4799 20.2462 49.6228C20.3281 49.6685 20.4169 49.6902 20.5045 49.6902C20.6906 49.6902 20.8712 49.5921 20.9683 49.4181L28.07 36.6965C28.2128 36.4406 28.1212 36.1172 27.8653 35.9743Z" fill="#1E243A"/>
  <path d="M28.0699 36.179C27.9269 35.9229 27.6037 35.8312 27.3477 35.9743C27.0919 36.1172 27.0002 36.4406 27.1431 36.6965L34.0555 49.0791C34.1526 49.2532 34.3332 49.3512 34.5193 49.3512C34.6068 49.3512 34.6957 49.3295 34.7776 49.2838C35.0335 49.1408 35.1251 48.8174 34.9822 48.5615L28.0699 36.179Z" fill="#1E243A"/>
  <path d="M38.8018 86.136H31.8945C31.6014 86.136 31.3638 86.3736 31.3638 86.6669C31.3638 86.9602 31.6014 87.1978 31.8945 87.1978H38.8018C39.0949 87.1978 39.3325 86.9602 39.3325 86.6669C39.3325 86.3736 39.0949 86.136 38.8018 86.136Z" fill="#1E243A"/>
  <path d="M23.634 86.136H12.2021C11.909 86.136 11.6714 86.3736 11.6714 86.6669C11.6714 86.9602 11.909 87.1978 12.2021 87.1978H23.634C23.9271 87.1978 24.1647 86.9602 24.1647 86.6669C24.1647 86.3736 23.9271 86.136 23.634 86.136Z" fill="#1E243A"/>
  <path d="M103.346 9.45544H32.2897C32.1694 9.45544 32.0525 9.49637 31.9585 9.57161L20.6365 18.6195C20.4604 18.7602 20.3924 18.997 20.4669 19.2099C20.5415 19.4227 20.7423 19.5652 20.9677 19.5652H103.346C103.639 19.5652 103.876 19.3275 103.876 19.0343V9.98632C103.876 9.69313 103.639 9.45544 103.346 9.45544ZM102.815 18.5034H22.4823L32.4757 10.5172H102.815V18.5034Z" fill="#1E243A"/>
  <path d="M101.262 11.5394H83.6641C83.371 11.5394 83.1334 11.777 83.1334 12.0702C83.1334 12.3635 83.371 12.6011 83.6641 12.6011H100.731V16.4195H83.5532C83.2601 16.4195 83.0225 16.6571 83.0225 16.9504C83.0225 17.2436 83.2601 17.4812 83.5532 17.4812H101.262C101.555 17.4812 101.793 17.2436 101.793 16.9504V12.0702C101.793 11.777 101.555 11.5394 101.262 11.5394Z" fill="#1E243A"/>
  <path d="M73.4344 16.4195H28.8556L33.8113 12.6011H73.399C73.6921 12.6011 73.9297 12.3635 73.9297 12.0702C73.9297 11.777 73.6921 11.5394 73.399 11.5394H33.6305C33.5134 11.5394 33.3995 11.5782 33.3067 11.6497L26.973 16.5298C26.7931 16.6685 26.7212 16.9063 26.7945 17.1214C26.8677 17.3366 27.0697 17.4812 27.2969 17.4812H73.4344C73.7275 17.4812 73.9651 17.2436 73.9651 16.9504C73.9651 16.6571 73.7276 16.4195 73.4344 16.4195Z" fill="#1E243A"/>
  <path d="M 103.346 18.617 C 103.053 18.617 102.815 18.855 102.815 19.148 L 102.815 26.576 L 97.889 26.576 L 95.65 26.576 L 95.65 19.148 C 95.65 18.855 95.413 18.617 95.12 18.617 C 94.827 18.617 94.589 18.855 94.589 19.148 L 94.589 27.106 C 94.589 27.4 94.827 27.637 95.12 27.637 L 103.346 27.637 C 103.639 27.637 103.876 27.4 103.876 27.106 L 103.876 19.148 C 103.876 18.855 103.639 18.617 103.346 18.617 Z" fill="#1E243A"/>
  <path d="M101.386 18.8239C101.093 18.8239 100.855 19.0615 100.855 19.3548V24.5281H97.6107V19.3548C97.6107 19.0615 97.3731 18.8239 97.08 18.8239C96.7869 18.8239 96.5493 19.0615 96.5493 19.3548V25.059C96.5493 25.3522 96.7869 25.5898 97.08 25.5898H101.386C101.679 25.5898 101.916 25.3522 101.916 25.059V19.3548C101.916 19.0616 101.679 18.8239 101.386 18.8239Z" fill="#1E243A" style="fill-rule: nonzero;"/>
  <path d="M80.6216 0.780151H76.4165C76.1234 0.780151 75.8857 1.01777 75.8857 1.31103V9.8092C75.8857 10.1025 76.1234 10.3401 76.4165 10.3401C76.7096 10.3401 76.9472 10.1025 76.9472 9.8092V1.8419H80.0909V9.8092C80.0909 10.1025 80.3286 10.3401 80.6216 10.3401C80.9147 10.3401 81.1524 10.1025 81.1524 9.8092V1.31103C81.1524 1.01777 80.9147 0.780151 80.6216 0.780151Z" fill="#1E243A"/>
  <path d="M103.534 9.49035L80.8109 0.815059C80.537 0.710511 80.2304 0.847904 80.1258 1.12177C80.0213 1.39563 80.1586 1.70245 80.4325 1.807L103.156 10.4823C103.218 10.5061 103.282 10.5173 103.345 10.5173C103.559 10.5173 103.76 10.3872 103.841 10.1756C103.946 9.90165 103.808 9.59482 103.534 9.49035Z" fill="#1E243A"/>
  <path d="M76.3144 0.790143L32.1873 9.46532C31.8996 9.52188 31.7123 9.80088 31.7689 10.0886C31.8186 10.3417 32.0405 10.5172 32.289 10.5172C32.3229 10.5172 32.3574 10.514 32.3919 10.5072L76.5191 1.83192C76.8066 1.77536 76.994 1.49636 76.9375 1.20862C76.881 0.920959 76.6018 0.73387 76.3144 0.790143Z" fill="#1E243A"/>
  <path d="M29.7314 18.7395C29.4383 18.7395 29.2007 18.9771 29.2007 19.2704V24.1573C29.2007 24.4506 29.4383 24.6882 29.7314 24.6882C30.0245 24.6882 30.2621 24.4506 30.2621 24.1573V19.2704C30.2621 18.9771 30.0245 18.7395 29.7314 18.7395Z" fill="#1E243A"/>
  <path d="M26.2783 18.7395C25.9852 18.7395 25.7476 18.9771 25.7476 19.2704V24.1573C25.7476 24.4506 25.9852 24.6882 26.2783 24.6882C26.5714 24.6882 26.809 24.4506 26.809 24.1573V19.2704C26.809 18.9771 26.5714 18.7395 26.2783 18.7395Z" fill="#1E243A"/>
  <path d="M30.1903 23.8921C30.0955 23.7279 29.9202 23.6266 29.7307 23.6266H26.278C26.0884 23.6266 25.9132 23.7279 25.8184 23.8921L24.0921 26.883C23.9973 27.0472 23.9973 27.2497 24.0921 27.4139L25.8184 30.4049C25.9133 30.5691 26.0885 30.6703 26.278 30.6703H29.7307C29.9202 30.6703 30.0955 30.5691 30.1903 30.4049L31.9166 27.4139C32.0114 27.2497 32.0114 27.0472 31.9166 26.883L30.1903 23.8921ZM29.4243 29.6085H26.5844L25.1645 27.1484L26.5844 24.6883H29.4243L30.8442 27.1484L29.4243 29.6085Z" fill="#1E243A"/>
  <path d="M29.294 34.2444C29.0009 34.2444 28.7632 34.482 28.7632 34.7753C28.7632 35.2827 28.4249 35.6305 28.1083 35.787C27.9273 35.8764 27.4567 36.0467 26.9997 35.6967C26.7655 35.5174 26.5929 35.2248 26.5138 34.873C26.4027 34.3791 26.4372 33.8452 26.6039 33.4798C26.7391 33.1834 27.006 32.9286 27.2886 32.6587C27.3679 32.5831 27.4467 32.5077 27.5227 32.4317L28.38 31.5743C28.4795 31.4747 28.5355 31.3397 28.5355 31.1989V27.1482C28.5355 26.855 28.2978 26.6174 28.0047 26.6174C27.7116 26.6174 27.474 26.855 27.474 27.1482V30.9789L26.7723 31.6808C26.702 31.7512 26.6291 31.8207 26.5558 31.8906C26.2289 32.2028 25.8583 32.5566 25.6383 33.039C25.3762 33.6136 25.3164 34.3864 25.4783 35.1061C25.6121 35.7003 25.9232 36.2093 26.3546 36.5397C26.728 36.8257 27.1641 36.9712 27.6101 36.9712C27.9343 36.9712 28.2637 36.8944 28.5784 36.7389C29.3472 36.3592 29.8248 35.6068 29.8248 34.7753C29.8247 34.482 29.5871 34.2444 29.294 34.2444Z" fill="#1E243A"/>
  <path d="M73.6543 9.45544C73.3612 9.45544 73.1235 9.69306 73.1235 9.98632V81.1483C73.1235 81.4415 73.3612 81.6791 73.6543 81.6791C73.9473 81.6791 74.185 81.4415 74.185 81.1483V9.98632C74.185 9.69306 73.9473 9.45544 73.6543 9.45544Z" fill="#1E243A"/>
  <path d="M83.3847 9.45544C83.0916 9.45544 82.854 9.69306 82.854 9.98632V81.1483C82.854 81.4415 83.0916 81.6791 83.3847 81.6791C83.6778 81.6791 83.9154 81.4415 83.9154 81.1483V9.98632C83.9154 9.69306 83.6778 9.45544 83.3847 9.45544Z" fill="#1E243A"/>
  <path d="M74.0225 9.6037C73.8108 9.40084 73.4749 9.40785 73.2721 9.61963C73.0693 9.83127 73.0764 10.1673 73.288 10.3702L83.0187 19.7003C83.1216 19.799 83.2539 19.8479 83.3859 19.8479C83.5255 19.8479 83.6648 19.7932 83.7691 19.6844C83.9719 19.4727 83.9648 19.1367 83.7532 18.9338L74.0225 9.6037Z" fill="#1E243A"/>
  <path d="M83.0177 9.60315L73.287 18.9333C73.0754 19.1362 73.0683 19.4722 73.2712 19.6839C73.3754 19.7927 73.5147 19.8475 73.6543 19.8475C73.7864 19.8475 73.9186 19.7985 74.0215 19.6999L83.7523 10.3697C83.9638 10.1668 83.971 9.83079 83.7681 9.61908C83.5654 9.40729 83.2294 9.40014 83.0177 9.60315Z" fill="#1E243A"/>
  <path d="M74.0225 21.9692C73.8108 21.7663 73.4749 21.7734 73.2721 21.9851C73.0693 22.1968 73.0764 22.5328 73.288 22.7357L83.0187 32.0659C83.1216 32.1646 83.2539 32.2136 83.3859 32.2136C83.5255 32.2136 83.6648 32.1588 83.7691 32.05C83.9719 31.8383 83.9648 31.5023 83.7532 31.2994L74.0225 21.9692Z" fill="#1E243A"/>
  <path d="M83.0177 21.9692L73.287 31.2994C73.0754 31.5023 73.0683 31.8383 73.2712 32.05C73.3754 32.1588 73.5147 32.2136 73.6543 32.2136C73.7864 32.2136 73.9186 32.1646 74.0215 32.0659L83.7523 22.7357C83.9638 22.5329 83.971 22.1969 83.7681 21.9851C83.5654 21.7734 83.2294 21.7662 83.0177 21.9692Z" fill="#1E243A"/>
  <path d="M74.0225 34.3365C73.8108 34.1336 73.4749 34.1406 73.2721 34.3524C73.0693 34.5641 73.0764 34.9001 73.288 35.103L83.0187 44.433C83.1216 44.5317 83.2539 44.5807 83.3859 44.5807C83.5255 44.5807 83.6648 44.5259 83.7691 44.4171C83.9719 44.2054 83.9648 43.8694 83.7532 43.6665L74.0225 34.3365Z" fill="#1E243A"/>
  <path d="M83.0177 34.3358L73.287 43.6659C73.0754 43.8688 73.0683 44.2048 73.2712 44.4165C73.3754 44.5253 73.5147 44.5801 73.6543 44.5801C73.7864 44.5801 73.9186 44.5311 74.0215 44.4325L83.7523 35.1024C83.9638 34.8995 83.971 34.5635 83.7681 34.3518C83.5654 34.14 83.2294 34.1329 83.0177 34.3358Z" fill="#1E243A"/>
  <path d="M74.0225 46.702C73.8108 46.4991 73.4749 46.5061 73.2721 46.7179C73.0693 46.9296 73.0764 47.2656 73.288 47.4685L83.0187 56.7985C83.1216 56.8972 83.2539 56.9462 83.3859 56.9462C83.5255 56.9462 83.6648 56.8915 83.7691 56.7826C83.9719 56.571 83.9648 56.2349 83.7532 56.032L74.0225 46.702Z" fill="#1E243A"/>
  <path d="M83.0177 46.702L73.287 56.032C73.0754 56.2349 73.0683 56.5709 73.2712 56.7826C73.3754 56.8914 73.5147 56.9462 73.6543 56.9462C73.7864 56.9462 73.9186 56.8972 74.0215 56.7985L83.7523 47.4685C83.9638 47.2657 83.971 46.9297 83.7681 46.718C83.5654 46.5062 83.2294 46.499 83.0177 46.702Z" fill="#1E243A"/>
  <path d="M74.0215 59.0688C73.8098 58.8659 73.4739 58.873 73.2711 59.0847C73.0683 59.2964 73.0754 59.6324 73.287 59.8353L83.0177 69.1653C83.1206 69.264 83.2529 69.313 83.3849 69.313C83.5245 69.313 83.6638 69.2582 83.7681 69.1494C83.9709 68.9377 83.9638 68.6017 83.7522 68.3988L74.0215 59.0688Z" fill="#1E243A"/>
  <path d="M83.0177 59.0688L73.287 68.3988C73.0754 68.6017 73.0683 68.9377 73.2711 69.1494C73.3754 69.2582 73.5147 69.313 73.6543 69.313C73.7863 69.313 73.9186 69.264 74.0215 69.1653L83.7522 59.8353C83.9638 59.6325 83.971 59.2965 83.7681 59.0847C83.5654 58.873 83.2294 58.8658 83.0177 59.0688Z" fill="#1E243A"/>
  <path d="M74.0225 71.4351C73.8108 71.2323 73.4749 71.2393 73.2721 71.4511C73.0693 71.6627 73.0764 71.9987 73.288 72.2016L83.0187 81.5318C83.1216 81.6304 83.2539 81.6794 83.3859 81.6794C83.5255 81.6794 83.6648 81.6247 83.7691 81.5158C83.9719 81.3042 83.9648 80.9682 83.7532 80.7652L74.0225 71.4351Z" fill="#1E243A"/>
  <path d="M83.0177 71.4346L73.287 80.7645C73.0754 80.9674 73.0683 81.3034 73.2712 81.5151C73.3754 81.6239 73.5147 81.6787 73.6543 81.6787C73.7864 81.6787 73.9186 81.6297 74.0215 81.5311L83.7523 72.2011C83.9638 71.9982 83.971 71.6622 83.7681 71.4505C83.5654 71.2387 83.2294 71.2316 83.0177 71.4346Z" fill="#1E243A"/>
  <path d="M84.3488 81.0671H72.6896C69.4264 81.0671 66.7715 83.7228 66.7715 86.987C66.7715 87.2802 67.0091 87.5178 67.3022 87.5178C67.5953 87.5178 67.8329 87.2802 67.8329 86.987C67.8329 84.3082 70.0116 82.1289 72.6896 82.1289H84.3488C87.0267 82.1289 89.2054 84.3082 89.2054 86.987C89.2054 87.2802 89.4431 87.5178 89.7362 87.5178C90.0293 87.5178 90.2669 87.2802 90.2669 86.987C90.2669 83.7227 87.612 81.0671 84.3488 81.0671Z" fill="#1E243A"/>
  <path d="M94.845 86.7968H56.9531C56.66 86.7968 56.4224 87.0344 56.4224 87.3277C56.4224 87.6209 56.66 87.8586 56.9531 87.8586H94.845C95.1381 87.8586 95.3757 87.6209 95.3757 87.3277C95.3757 87.0344 95.1382 86.7968 94.845 86.7968Z" fill="#1E243A"/>
  <path d="M109.014 89.3589H86.2929C85.9998 89.3589 85.7622 89.5965 85.7622 89.8898C85.7622 90.1831 85.9998 90.4207 86.2929 90.4207H109.014C109.308 90.4207 109.545 90.1831 109.545 89.8898C109.545 89.5965 109.308 89.3589 109.014 89.3589Z" fill="#1E243A"/>
  <path d="M52.1809 86.9312C52.1701 86.9312 52.1594 86.9312 52.1486 86.9314C52.1056 85.5608 50.9776 84.4589 49.5971 84.4589C49.0964 84.4589 48.6211 84.6017 48.2175 84.8612C47.8217 83.8589 46.8436 83.1479 45.7026 83.1479C44.7907 83.1479 43.9693 83.5954 43.4758 84.3152C43.0905 84.0467 42.6276 83.8971 42.1452 83.8971C40.9517 83.8971 39.9652 84.8 39.8323 85.9588C39.8045 85.9578 39.7766 85.9573 39.7486 85.9573C39.1258 85.9573 38.4837 86.3328 38.1509 86.8917C38.0281 87.098 37.9538 87.3181 37.928 87.5418C37.3975 87.4896 36.9025 87.5945 36.5206 87.8531C36.0867 88.1469 35.8477 88.6067 35.8477 89.1475C35.8477 89.4408 36.0853 89.6784 36.3784 89.6784C36.6715 89.6784 36.9091 89.4408 36.9091 89.1475C36.9091 88.9597 36.9747 88.8277 37.1156 88.7323C37.3981 88.541 37.8985 88.5446 38.3906 88.7415C38.5981 88.8246 38.8355 88.7686 38.9841 88.6016C39.1328 88.4346 39.1608 88.1923 39.0544 87.9957C38.9501 87.803 38.9528 87.6197 39.0628 87.4349C39.2041 87.1978 39.4988 87.019 39.7486 87.019C39.9035 87.019 40.0551 87.0468 40.1991 87.1018C40.381 87.1711 40.5861 87.1354 40.7338 87.0087C40.8815 86.8819 40.948 86.6845 40.9071 86.4942C40.8881 86.4055 40.8784 86.3153 40.8784 86.2258C40.8784 85.5272 41.4466 84.9588 42.1451 84.9588C42.5623 84.9588 42.9528 85.1647 43.1898 85.5096C43.3051 85.6773 43.506 85.7647 43.7072 85.7337C43.9083 85.703 44.0742 85.5601 44.1343 85.3657C44.348 84.6742 44.9782 84.2096 45.7025 84.2096C46.6075 84.2096 47.3437 84.9461 47.3437 85.8513C47.3437 85.8783 47.3429 85.9051 47.3416 85.9318C47.3301 86.174 47.4839 86.3932 47.7156 86.4645C47.9471 86.5357 48.1977 86.4412 48.3242 86.2345C48.5981 85.7875 49.0739 85.5206 49.5969 85.5206C50.4192 85.5206 51.0883 86.1899 51.0883 87.0124C51.0883 87.1592 51.0669 87.3045 51.0245 87.4446C50.9646 87.6431 51.0257 87.8582 51.1808 87.9956C51.3359 88.1331 51.5569 88.1676 51.7465 88.084C51.8839 88.0235 52.0299 87.9928 52.1807 87.9928C52.7759 87.9928 53.2602 88.4772 53.2602 89.0726C53.2602 89.3658 53.4978 89.6035 53.7909 89.6035C54.084 89.6035 54.3216 89.3658 54.3216 89.0726C54.3218 87.8919 53.3614 86.9312 52.1809 86.9312Z" fill="#1E243A"/>
  <path d="M44.6018 87.1606C44.1334 86.7756 43.5683 86.5094 42.9675 86.3908C42.6799 86.3339 42.4009 86.5212 42.3441 86.8089C42.2874 87.0965 42.4745 87.3757 42.7621 87.4325C43.0615 87.4915 43.5068 87.6346 43.9279 87.9808C44.4717 88.4279 44.6984 88.9901 44.7851 89.2855C44.853 89.5169 45.0646 89.667 45.2941 89.667C45.3435 89.667 45.3939 89.6599 45.4438 89.6453C45.725 89.5627 45.8861 89.2677 45.8035 88.9863C45.5945 88.2742 45.1677 87.6259 44.6018 87.1606Z" fill="#1E243A"/>
  <path d="M45.5627 85.9599C45.3098 85.8115 44.9847 85.8964 44.8365 86.1493L44.1364 87.3438C43.9882 87.5967 44.073 87.922 44.3259 88.0703C44.4102 88.1198 44.5026 88.1432 44.5938 88.1432C44.776 88.1432 44.9533 88.0494 45.0521 87.8808L45.7522 86.6863C45.9004 86.4333 45.8156 86.1081 45.5627 85.9599Z" fill="#1E243A"/>
  <path d="M96.8479 61.8494C95.3579 61.8494 93.9831 62.8736 92.9766 64.7335C92.026 66.4903 91.5024 68.8144 91.5024 71.2778C91.5024 73.7412 92.026 76.0653 92.9766 77.8221C93.9831 79.682 95.3579 80.7063 96.8479 80.7063C98.4343 80.7063 99.9208 79.5071 100.926 77.4162C101.053 77.152 100.942 76.8348 100.678 76.7076C100.414 76.5809 100.097 76.6917 99.9697 76.956C99.148 78.6646 98.0101 79.6445 96.8478 79.6445C94.5257 79.6445 92.5639 75.813 92.5639 71.2778C92.5639 66.7426 94.5257 62.9111 96.8478 62.9111C99.0672 62.9111 100.985 66.433 101.124 70.762C101.133 71.0551 101.377 71.2883 101.671 71.2757C101.964 71.2663 102.194 71.0211 102.184 70.7282C102.109 68.38 101.553 66.1856 100.617 64.5492C99.6207 62.8082 98.2822 61.8494 96.8479 61.8494Z" fill="#1E243A"/>
  <path d="M96.8481 73.9032C96.555 73.9032 96.3174 74.1408 96.3174 74.4341V89.4538C96.3174 89.7471 96.555 89.9847 96.8481 89.9847C97.1412 89.9847 97.3789 89.7471 97.3789 89.4538V74.4341C97.3789 74.1408 97.1412 73.9032 96.8481 73.9032Z" fill="#1E243A"/>
  <path d="M104.145 68.6011C101.816 68.6011 99.9917 71.7747 99.9917 75.8262C99.9917 79.8776 101.816 83.0512 104.145 83.0512C106.474 83.0512 108.298 79.8776 108.298 75.8262C108.298 71.7747 106.474 68.6011 104.145 68.6011ZM104.145 81.9895C102.469 81.9895 101.053 79.1671 101.053 75.8262C101.053 72.4854 102.469 69.6629 104.145 69.6629C105.821 69.6629 107.236 72.4854 107.236 75.8262C107.236 79.1671 105.821 81.9895 104.145 81.9895Z" fill="#1E243A"/>
  <path d="M104.145 77.6224C103.852 77.6224 103.614 77.8601 103.614 78.1533V89.4536C103.614 89.7468 103.852 89.9845 104.145 89.9845C104.438 89.9845 104.676 89.7468 104.676 89.4536V78.1533C104.676 77.8601 104.438 77.6224 104.145 77.6224Z" fill="#1E243A"/>
  <path d="M13.5008 12.0865H4.48043C4.18733 12.0865 3.94971 12.3242 3.94971 12.6174C3.94971 12.9107 4.18733 13.1483 4.48043 13.1483H13.5008C13.7939 13.1483 14.0315 12.9107 14.0315 12.6174C14.0315 12.3242 13.7939 12.0865 13.5008 12.0865Z" fill="#1E243A"/>
  <path d="M25.2999 5.655C25.007 4.22107 23.7407 3.15625 22.2332 3.15625C21.2778 3.15625 20.3996 3.57869 19.809 4.30493C19.5423 4.22841 19.2661 4.18983 18.9835 4.18983C17.3308 4.18983 15.9863 5.53479 15.9863 7.18787C15.9863 7.48112 16.2239 7.71874 16.517 7.71874C16.8101 7.71874 17.0478 7.48112 17.0478 7.18787C17.0478 6.12017 17.9161 5.25159 18.9835 5.25159C19.2639 5.25159 19.5343 5.31019 19.787 5.42571C20.032 5.53762 20.3221 5.44836 20.4615 5.21775C20.8404 4.59174 21.5027 4.218 22.2331 4.218C23.3362 4.218 24.2439 5.08039 24.2994 6.18107C24.3137 6.4635 24.5467 6.68516 24.8294 6.68516H24.9203C25.5948 6.68516 26.1436 7.23409 26.1436 7.9088C26.1436 8.58351 25.5948 9.13244 24.9203 9.13244H20.1841C19.891 9.13244 19.6534 9.37006 19.6534 9.66332C19.6534 9.95658 19.891 10.1942 20.1841 10.1942H24.9203C26.1801 10.1942 27.205 9.16896 27.205 7.9088C27.2051 6.77797 26.3797 5.83634 25.2999 5.655Z" fill="#1E243A"/>
  <path d="M17.7173 7.16078C17.4346 7.16078 17.1583 7.19942 16.8917 7.27587C16.3012 6.54963 15.423 6.1272 14.4676 6.1272C12.9601 6.1272 11.6938 7.19201 11.4009 8.62593C10.321 8.80728 9.49561 9.74889 9.49561 10.8798C9.49561 12.1399 10.5205 13.1652 11.7803 13.1652H18.0964C18.7106 13.1652 20.7144 12.9484 20.7144 10.1588C20.7145 8.50572 19.3699 7.16078 17.7173 7.16078ZM18.0964 12.1034H11.7803C11.1058 12.1034 10.557 11.5545 10.557 10.8798C10.557 10.2051 11.1058 9.65616 11.7803 9.65616H11.8712C12.1539 9.65616 12.387 9.43446 12.4012 9.15203C12.4569 8.05129 13.3645 7.18901 14.4676 7.18901C15.198 7.18901 15.8602 7.56275 16.2391 8.18882C16.3787 8.41951 16.6688 8.50876 16.9138 8.39678C17.1665 8.28119 17.4368 8.22259 17.7173 8.22259C18.7846 8.22259 19.653 9.09117 19.653 10.1589C19.653 11.4491 19.1293 12.1034 18.0964 12.1034Z" fill="#1E243A"/>
  <path d="M56.6346 37.2311H47.5888C47.2957 37.2311 47.0581 37.4687 47.0581 37.7619C47.0581 38.0552 47.2957 38.2928 47.5888 38.2928H56.6346C56.9277 38.2928 57.1653 38.0552 57.1653 37.7619C57.1653 37.4687 56.9277 37.2311 56.6346 37.2311Z" fill="#1E243A"/>
  <path d="M64.8336 37.2311H59.7924C59.4993 37.2311 59.2617 37.4687 59.2617 37.7619C59.2617 38.0552 59.4993 38.2928 59.7924 38.2928H64.8336C65.1267 38.2928 65.3643 38.0552 65.3643 37.7619C65.3643 37.4687 65.1267 37.2311 64.8336 37.2311Z" fill="#1E243A"/>
  <path d="M61.251 35.3433H53.5278C53.2347 35.3433 52.9971 35.5809 52.9971 35.8742C52.9971 36.1674 53.2347 36.405 53.5278 36.405H61.251C61.5441 36.405 61.7817 36.1674 61.7817 35.8742C61.7817 35.5809 61.5441 35.3433 61.251 35.3433Z" fill="#1E243A"/>
  <path d="M54.0011 31.3118C53.6918 29.6565 52.242 28.4202 50.5121 28.4202C49.4094 28.4202 48.3974 28.9165 47.7277 29.767C47.4088 29.6696 47.0774 29.6204 46.738 29.6204C44.8659 29.6204 43.3428 31.144 43.3428 33.0166C43.3428 36.1768 45.6044 36.4224 46.2976 36.4224H53.6329C55.0488 36.4224 56.2007 35.2702 56.2007 33.8539C56.2007 32.5627 55.2432 31.4909 54.0011 31.3118ZM53.633 35.3607H46.2977C45.0413 35.3607 44.4043 34.5721 44.4043 33.0167C44.4043 31.7294 45.4512 30.6823 46.738 30.6823C47.0761 30.6823 47.402 30.7529 47.7068 30.8924C47.9518 31.0043 48.2419 30.9151 48.3815 30.6844C48.8371 29.9315 49.6336 29.482 50.5121 29.482C51.8389 29.482 52.9306 30.5191 52.9974 31.8431C53.0117 32.1255 53.2448 32.3472 53.5275 32.3472H53.633C54.4636 32.3472 55.1393 33.0232 55.1393 33.854C55.1393 34.6848 54.4635 35.3607 53.633 35.3607Z" style="fill: rgb(91, 189, 200);"/>
  <path d="M100.089 44.3075H90.54C90.2469 44.3075 90.0093 44.5451 90.0093 44.8384C90.0093 45.1316 90.2469 45.3692 90.54 45.3692H100.089C100.382 45.3692 100.62 45.1316 100.62 44.8384C100.62 44.5451 100.382 44.3075 100.089 44.3075Z" fill="#1E243A"/>
  <path d="M106.613 39.6912C106.598 39.6912 106.583 39.6914 106.568 39.6916C106.169 39.6985 105.784 39.7872 105.429 39.9513C104.79 38.9861 103.702 38.3878 102.519 38.3878C100.724 38.3878 99.2409 39.7505 99.0499 41.496C98.2102 41.7213 97.5903 42.4891 97.5903 43.3992C97.5903 44.4855 98.4739 45.3692 99.5598 45.3692H107.324C107.602 45.3692 108.451 45.3692 109.026 44.7436C109.464 44.2658 109.645 43.5333 109.563 42.5666C109.427 40.9712 108.109 39.6912 106.613 39.6912ZM108.244 44.0253C108.067 44.2178 107.775 44.3074 107.324 44.3074H99.5599C99.0591 44.3074 98.6518 43.8999 98.6518 43.3991C98.6518 42.8982 99.0592 42.4907 99.5599 42.4907H99.561C99.7042 42.4907 99.8414 42.4328 99.9413 42.3301C100.041 42.2275 100.095 42.0888 100.091 41.9456C100.091 41.9233 100.091 41.9008 100.091 41.8784C100.091 40.5391 101.18 39.4495 102.519 39.4495C103.482 39.4495 104.355 40.0194 104.743 40.9014C104.808 41.05 104.938 41.1605 105.095 41.2014C105.252 41.2425 105.419 41.2091 105.548 41.1112C105.849 40.8835 106.208 40.7597 106.586 40.7532C107.555 40.7337 108.414 41.5903 108.505 42.6566C108.56 43.3058 108.47 43.779 108.244 44.0253Z" fill="#1E243A"/>
  <path d="M49.2828 76.5502C48.9141 76.6797 48.7202 77.0832 48.8497 77.4527C48.8497 77.4519 48.8497 77.4519 48.8497 77.4519C48.9516 77.7436 49.2255 77.9262 49.5177 77.9262C49.5949 77.9262 49.6741 77.9128 49.752 77.8858C50.1206 77.7563 50.3145 77.3521 50.185 76.9833C50.0555 76.6145 49.6514 76.4207 49.2828 76.5502Z" fill="#1E243A"/>
  <path d="M50.186 73.9787C49.8548 73.7712 49.4175 73.8717 49.2101 74.2031C49.0028 74.5343 49.1026 74.971 49.4338 75.1783C49.5512 75.252 49.6807 75.2867 49.8088 75.2867C50.0444 75.2867 50.2751 75.1692 50.4096 74.9548C50.6169 74.6234 50.5171 74.1868 50.186 73.9787Z" fill="#1E243A"/>
  <path d="M54.0646 74.5359C54.0653 74.5366 54.0667 74.5374 54.0674 74.5387C54.0688 74.5402 54.0709 74.5416 54.0723 74.5437C54.2103 74.6782 54.3887 74.7455 54.5677 74.7455C54.7488 74.7455 54.93 74.6767 55.068 74.5387C55.3446 74.262 55.3446 73.814 55.068 73.5372C55.0673 73.5365 55.0665 73.5358 55.0651 73.5351C55.0637 73.533 55.0623 73.5316 55.0602 73.5295C54.7828 73.2541 54.3349 73.2556 54.0596 73.5323C53.7836 73.8098 53.7851 74.2578 54.0624 74.5338C54.0631 74.5345 54.0639 74.5352 54.0646 74.5359Z" fill="#1E243A"/>
  <path d="M51.6291 78.4248C51.2604 78.296 50.8571 78.4913 50.7283 78.8608C50.6002 79.2296 50.7955 79.633 51.1642 79.7618C51.2413 79.788 51.3199 79.8008 51.397 79.8008C51.69 79.8008 51.9638 79.6182 52.065 79.3259C52.1938 78.9563 51.9985 78.5528 51.6291 78.4248Z" fill="#1E243A"/>
  <path d="M53.6573 78.194C53.3268 78.4028 53.2278 78.8402 53.4365 79.1708C53.571 79.3839 53.8009 79.5006 54.0352 79.5006C54.1647 79.5006 54.2949 79.4659 54.4123 79.3916C54.7428 79.1835 54.8419 78.7461 54.6331 78.4155C54.4251 78.085 53.9878 77.9858 53.6573 78.194Z" fill="#1E243A"/>
  <path d="M55.5241 75.8402C55.1356 75.7963 54.7854 76.0766 54.7422 76.4653C54.699 76.8538 54.9785 77.2035 55.367 77.2467C55.3939 77.2495 55.4201 77.251 55.4463 77.251C55.8015 77.251 56.1079 76.9841 56.1489 76.6224C56.1921 76.2337 55.9119 75.8833 55.5241 75.8402Z" fill="#1E243A"/>
  <path d="M51.9736 72.4585C51.5851 72.5024 51.3063 72.8535 51.3509 73.2421C51.3919 73.6032 51.6983 73.87 52.0528 73.87C52.0797 73.87 52.1073 73.8679 52.1342 73.865C52.5227 73.8205 52.8015 73.4694 52.7569 73.0808C52.7123 72.6928 52.3614 72.4139 51.9736 72.4585Z" fill="#1E243A"/>
  <path d="M56.0388 44.2227C55.7076 44.0152 55.2703 44.115 55.063 44.4463C54.8556 44.7776 54.9561 45.2143 55.2873 45.4224C55.4041 45.4953 55.5336 45.53 55.6623 45.53C55.898 45.53 56.128 45.4125 56.2624 45.1981C56.4698 44.8668 56.37 44.4301 56.0388 44.2227Z" fill="#1E243A"/>
  <path d="M55.1361 46.7942C54.7667 46.923 54.5728 47.3272 54.7023 47.696C54.8049 47.9876 55.078 48.1695 55.3703 48.1695C55.4481 48.1695 55.5267 48.1567 55.6045 48.1292C55.9732 48.0004 56.1671 47.5962 56.0376 47.2274C55.9081 46.8586 55.504 46.6639 55.1361 46.7942Z" fill="#1E243A"/>
  <path d="M59.9176 44.7792C59.9183 44.7799 59.9197 44.7814 59.9204 44.7821C60.0584 44.9201 60.2395 44.9894 60.4207 44.9894C60.6018 44.9894 60.783 44.9202 60.921 44.7821C61.1976 44.5061 61.1976 44.058 60.9217 43.7812C60.9174 43.7776 60.9139 43.774 60.9103 43.7706C60.633 43.4981 60.1872 43.5002 59.9126 43.7762C59.6373 44.0537 59.6388 44.5017 59.9154 44.7771C59.9161 44.7778 59.9168 44.7785 59.9176 44.7792Z" fill="#1E243A"/>
  <path d="M59.5103 48.4379C59.1799 48.6468 59.0808 49.0835 59.2895 49.4141C59.424 49.6278 59.654 49.7446 59.8889 49.7446C60.0177 49.7446 60.1486 49.7092 60.2654 49.6356C60.5958 49.4268 60.6949 48.9901 60.4862 48.6588C60.278 48.3282 59.8407 48.2291 59.5103 48.4379Z" fill="#1E243A"/>
  <path d="M57.4823 48.6681C57.1129 48.5399 56.7096 48.7354 56.5808 49.1042C56.4527 49.4737 56.648 49.8771 57.0174 50.0052C57.0938 50.0321 57.1724 50.0449 57.2495 50.0449C57.5425 50.0449 57.8163 49.8615 57.9182 49.5691C58.0464 49.1997 57.851 48.7969 57.4823 48.6681Z" fill="#1E243A"/>
  <path d="M61.3771 46.0836C60.9886 46.0405 60.6384 46.3201 60.5952 46.7086C60.5521 47.0972 60.8316 47.4469 61.22 47.4908C61.2469 47.4937 61.2731 47.4951 61.2993 47.4951C61.6552 47.4951 61.9616 47.2275 62.0019 46.8658C62.0452 46.4772 61.7656 46.1269 61.3771 46.0836Z" fill="#1E243A"/>
  <path d="M57.8261 42.7015C57.4376 42.7461 57.1588 43.0972 57.2034 43.4858C57.2452 43.8468 57.5509 44.1129 57.9061 44.1129C57.9323 44.1129 57.9599 44.1115 57.9868 44.108C58.3752 44.0634 58.654 43.7122 58.6095 43.3244C58.5649 42.9358 58.2146 42.6569 57.8261 42.7015Z" fill="#1E243A"/>
  <path d="M104.647 7.02328C104.278 7.15274 104.084 7.55698 104.214 7.92576C104.315 8.21731 104.589 8.39922 104.881 8.39922C104.959 8.39922 105.038 8.38646 105.115 8.35886C105.484 8.2301 105.678 7.82595 105.549 7.45717C105.419 7.08761 105.015 6.89375 104.647 7.02328Z" fill="#1E243A"/>
  <path d="M109.431 5.0114C109.569 5.14943 109.75 5.21888 109.932 5.21888C110.113 5.21888 110.294 5.1495 110.432 5.0114C110.708 4.7347 110.708 4.28665 110.432 4.01052C110.431 4.00981 110.43 4.00839 110.429 4.00768C110.428 4.00627 110.425 4.00412 110.424 4.00271C110.147 3.72672 109.699 3.72806 109.423 4.00554C109.147 4.28309 109.149 4.7311 109.426 5.00652C109.428 5.00787 109.429 5.01005 109.431 5.0114Z" fill="#1E243A"/>
  <path d="M105.549 4.45231C105.217 4.24492 104.781 4.34466 104.573 4.676C104.366 5.00726 104.466 5.44399 104.797 5.65209C104.914 5.72492 105.044 5.75968 105.172 5.75968C105.408 5.75968 105.638 5.64218 105.773 5.42778C105.98 5.09638 105.88 4.65971 105.549 4.45231Z" fill="#1E243A"/>
  <path d="M110.887 6.31324C110.498 6.27006 110.149 6.54963 110.105 6.93819C110.062 7.32675 110.342 7.67637 110.73 7.72025C110.757 7.72308 110.784 7.7245 110.81 7.7245C111.165 7.7245 111.471 7.45706 111.512 7.09533C111.555 6.7067 111.275 6.35634 110.887 6.31324Z" fill="#1E243A"/>
  <path d="M109.021 8.6676C108.691 8.87643 108.592 9.31319 108.8 9.64376C108.934 9.85761 109.164 9.97433 109.399 9.97433C109.528 9.97433 109.659 9.93894 109.776 9.86532C110.107 9.6565 110.205 9.21901 109.997 8.88843C109.788 8.55786 109.352 8.45871 109.021 8.6676Z" fill="#1E243A"/>
  <path d="M106.993 8.89766C106.624 8.76955 106.22 8.96417 106.092 9.33365C105.964 9.70313 106.159 10.1066 106.528 10.2346C106.605 10.2616 106.684 10.2743 106.761 10.2743C107.053 10.2743 107.327 10.091 107.429 9.79871C107.557 9.42994 107.363 9.02648 106.993 8.89766Z" fill="#1E243A"/>
  <path d="M107.336 2.93126C106.948 2.97585 106.67 3.32695 106.714 3.71487C106.755 4.07653 107.061 4.34277 107.416 4.34277C107.443 4.34277 107.47 4.34126 107.498 4.33779C107.885 4.29319 108.164 3.9421 108.12 3.55418C108.075 3.16555 107.725 2.88666 107.336 2.93126Z" fill="#1E243A"/>
  <path d="M97.9891 51.6263C97.658 51.4188 97.2214 51.5193 97.0133 51.8507C96.806 52.1819 96.9058 52.6187 97.2376 52.826C97.3544 52.8996 97.4839 52.9343 97.6127 52.9343C97.8483 52.9343 98.0783 52.8168 98.2127 52.6024C98.4201 52.2711 98.3204 51.8344 97.9891 51.6263Z" fill="#1E243A"/>
  <path d="M99.4328 56.072C99.0641 55.9439 98.6608 56.1386 98.532 56.5081C98.4039 56.8776 98.5992 57.281 98.9679 57.4091C99.045 57.4361 99.1236 57.4488 99.2007 57.4488C99.493 57.4488 99.7675 57.2655 99.8687 56.9731C99.9975 56.6036 99.8022 56.2002 99.4328 56.072Z" fill="#1E243A"/>
  <path d="M101.869 52.1829C101.869 52.1836 101.871 52.185 101.871 52.1858C102.009 52.3237 102.19 52.3931 102.372 52.3931C102.553 52.3931 102.734 52.3238 102.872 52.1858C103.149 51.909 103.149 51.461 102.872 51.1849C102.868 51.1806 102.865 51.1771 102.861 51.1735C102.583 50.9017 102.138 50.9038 101.864 51.1799C101.588 51.4574 101.589 51.9054 101.866 52.1808C101.867 52.1815 101.868 52.1822 101.869 52.1829Z" fill="#1E243A"/>
  <path d="M97.0865 54.1977C96.7178 54.3273 96.524 54.7314 96.6535 55.1002C96.7553 55.3911 97.0292 55.5737 97.3207 55.5737C97.3986 55.5737 97.4778 55.5603 97.5556 55.5333C97.9243 55.4038 98.1182 55.0004 97.9887 54.6316C97.8592 54.2621 97.4552 54.0682 97.0865 54.1977Z" fill="#1E243A"/>
  <path d="M103.328 53.4879C102.939 53.4447 102.589 53.7243 102.546 54.1128C102.503 54.5014 102.782 54.851 103.171 54.8949C103.197 54.8977 103.224 54.8991 103.25 54.8991C103.606 54.8991 103.912 54.6317 103.953 54.27C103.996 53.8813 103.716 53.531 103.328 53.4879Z" fill="#1E243A"/>
  <path d="M101.461 55.8421C101.131 56.0502 101.031 56.4877 101.24 56.8183C101.375 57.0321 101.605 57.1488 101.839 57.1488C101.968 57.1488 102.099 57.1134 102.216 57.0398C102.546 56.831 102.645 56.3935 102.437 56.0629C102.229 55.7324 101.791 55.6332 101.461 55.8421Z" fill="#1E243A"/>
  <path d="M99.7778 50.1058C99.3893 50.1504 99.1105 50.5015 99.1551 50.8894C99.1968 51.2504 99.5025 51.5173 99.8577 51.5173C99.8846 51.5173 99.9115 51.5158 99.9384 51.5123C100.327 51.4677 100.606 51.1166 100.561 50.7287C100.517 50.3401 100.166 50.0612 99.7778 50.1058Z" fill="#1E243A"/>
  <path d="M10.3408 38.8595C10.0097 38.6521 9.57306 38.7519 9.36573 39.0839C9.15769 39.4152 9.25817 39.852 9.58934 40.0593C9.70609 40.1322 9.8363 40.1676 9.96438 40.1676C10.2 40.1676 10.4307 40.0501 10.5644 39.8356C10.7725 39.5043 10.6721 39.0676 10.3408 38.8595Z" fill="#1E243A"/>
  <path d="M11.7851 43.3053C11.4157 43.1765 11.0131 43.3718 10.8843 43.7413C10.7555 44.11 10.9515 44.5135 11.3202 44.6423C11.3973 44.6685 11.4752 44.6812 11.5523 44.6812C11.8453 44.6812 12.1191 44.4979 12.221 44.2063C12.3492 43.8369 12.1546 43.4334 11.7851 43.3053Z" fill="#1E243A"/>
  <path d="M14.2183 39.4139C14.219 39.4146 14.2197 39.4153 14.2204 39.416C14.2211 39.4174 14.2218 39.4181 14.2233 39.4188C14.3612 39.5576 14.5424 39.6262 14.7235 39.6262C14.9047 39.6262 15.0851 39.5576 15.2238 39.4188C15.4998 39.1428 15.4998 38.6947 15.2238 38.4186C15.221 38.4158 15.2189 38.413 15.216 38.4101C14.9387 38.1347 14.4907 38.1362 14.2148 38.413C13.9395 38.6904 13.9409 39.1385 14.2183 39.4145V39.4139Z" fill="#1E243A"/>
  <path d="M9.43857 41.431C9.0699 41.5605 8.87601 41.964 9.00551 42.3335C9.1074 42.6244 9.38054 42.807 9.67278 42.807C9.75062 42.807 9.82987 42.7935 9.907 42.7666C10.2757 42.6371 10.4703 42.233 10.3408 41.8642C10.2113 41.4954 9.80723 41.3015 9.43857 41.431Z" fill="#1E243A"/>
  <path d="M15.6793 40.7211C15.2908 40.6773 14.9412 40.9568 14.8981 41.3454C14.8542 41.734 15.1344 42.0843 15.5222 42.1275C15.5491 42.1304 15.576 42.1319 15.6022 42.1319C15.9574 42.1326 16.2638 41.8649 16.3041 41.5032C16.348 41.1147 16.0678 40.7643 15.6793 40.7211Z" fill="#1E243A"/>
  <path d="M12.1286 37.3392C11.7409 37.3838 11.4621 37.734 11.5066 38.1226C11.5477 38.4837 11.8534 38.7497 12.2086 38.7497C12.2355 38.7497 12.2624 38.7482 12.29 38.7454C12.6785 38.7008 12.9566 38.3497 12.912 37.9612C12.8681 37.5734 12.5171 37.2945 12.1286 37.3392Z" fill="#1E243A"/>
  <path d="M13.8134 43.0753C13.4822 43.2834 13.3839 43.7208 13.5919 44.0513C13.7264 44.2644 13.9564 44.3811 14.1913 44.3811C14.3208 44.3811 14.451 44.3465 14.5684 44.2721C14.8989 44.0641 14.998 43.6267 14.7892 43.2961C14.5805 42.9656 14.1438 42.8666 13.8134 43.0753Z" fill="#1E243A"/>
  <path d="M10.9057 24.1566C10.6126 24.1566 10.375 24.3942 10.375 24.6875V28.0851C10.375 28.3783 10.6126 28.616 10.9057 28.616C11.1988 28.616 11.4364 28.3783 11.4364 28.0851V24.6875C11.4364 24.3942 11.1988 24.1566 10.9057 24.1566Z" fill="#1E243A"/>
  <path d="M12.6392 25.8907H9.24263C8.94953 25.8907 8.71191 26.1284 8.71191 26.4216C8.71191 26.7149 8.94953 26.9525 9.24263 26.9525H12.6392C12.9323 26.9525 13.1699 26.7149 13.1699 26.4216C13.1699 26.1284 12.9323 25.8907 12.6392 25.8907Z" fill="#1E243A"/>
  <path d="M64.9697 60.1506C64.6766 60.1506 64.439 60.3883 64.439 60.6815V64.0791C64.439 64.3724 64.6766 64.61 64.9697 64.61C65.2628 64.61 65.5004 64.3724 65.5004 64.0791V60.6815C65.5004 60.3883 65.2628 60.1506 64.9697 60.1506Z" fill="#1E243A"/>
  <path d="M66.7037 61.8849H63.3071C63.014 61.8849 62.7764 62.1226 62.7764 62.4158C62.7764 62.7091 63.014 62.9467 63.3071 62.9467H66.7037C66.9968 62.9467 67.2344 62.7091 67.2344 62.4158C67.2344 62.1226 66.9968 61.8849 66.7037 61.8849Z" fill="#1E243A"/>
  <path d="M62.1215 23.7904C61.8284 23.7904 61.5908 24.028 61.5908 24.3213V27.7189C61.5908 28.0122 61.8284 28.2498 62.1215 28.2498C62.4146 28.2498 62.6522 28.0122 62.6522 27.7189V24.3213C62.6522 24.0281 62.4146 23.7904 62.1215 23.7904Z" fill="#1E243A"/>
  <path d="M63.8551 25.5246H60.4585C60.1654 25.5246 59.9277 25.7622 59.9277 26.0555C59.9277 26.3487 60.1654 26.5864 60.4585 26.5864H63.8551C64.1482 26.5864 64.3858 26.3487 64.3858 26.0555C64.3858 25.7622 64.1482 25.5246 63.8551 25.5246Z" fill="#1E243A"/>
  <path d="M89.7016 31.6345C89.4085 31.6345 89.1709 31.8721 89.1709 32.1653V35.5629C89.1709 35.8561 89.4085 36.0938 89.7016 36.0938C89.9947 36.0938 90.2323 35.8561 90.2323 35.5629V32.1653C90.2323 31.8721 89.9947 31.6345 89.7016 31.6345Z" fill="#1E243A"/>
  <path d="M91.4346 33.3688H88.038C87.7449 33.3688 87.5073 33.6064 87.5073 33.8996C87.5073 34.1929 87.7449 34.4305 88.038 34.4305H91.4346C91.7277 34.4305 91.9653 34.1929 91.9653 33.8996C91.9653 33.6064 91.7277 33.3688 91.4346 33.3688Z" fill="#1E243A"/>
  <path d="M39.2353 37.1542C38.9422 37.1542 38.7046 37.3919 38.7046 37.6851V41.0827C38.7046 41.376 38.9422 41.6136 39.2353 41.6136C39.5284 41.6136 39.766 41.376 39.766 41.0827V37.6851C39.766 37.3919 39.5284 37.1542 39.2353 37.1542Z" fill="#1E243A"/>
  <path d="M40.9693 38.8884H37.5727C37.2796 38.8884 37.042 39.126 37.042 39.4192C37.042 39.7125 37.2796 39.9501 37.5727 39.9501H40.9693C41.2624 39.9501 41.5 39.7125 41.5 39.4192C41.5 39.126 41.2624 38.8884 40.9693 38.8884Z" fill="#1E243A"/>
  <path d="M5.57564 74.448C5.28254 74.448 5.04492 74.6856 5.04492 74.9789V78.3765C5.04492 78.6698 5.28254 78.9074 5.57564 78.9074C5.86874 78.9074 6.10637 78.6698 6.10637 78.3765V74.9789C6.10637 74.6856 5.86874 74.448 5.57564 74.448Z" fill="#1E243A"/>
  <path d="M7.30866 76.182H3.91207C3.61897 76.182 3.38135 76.4196 3.38135 76.7129C3.38135 77.0061 3.61897 77.2438 3.91207 77.2438H7.30866C7.60175 77.2438 7.83937 77.0061 7.83937 76.7129C7.83937 76.4196 7.60175 76.182 7.30866 76.182Z" fill="#1E243A"/>
</svg>