<?xml version="1.0" encoding="iso-8859-1"?>
<!-- Generator: Adobe Illustrator 19.0.0, SVG Export Plug-In . SVG Version: 6.00 Build 0)  -->
<svg version="1.1" id="Layer_1" xmlns="http://www.w3.org/2000/svg" xmlns:xlink="http://www.w3.org/1999/xlink" x="0px" y="0px"
	 viewBox="0 0 512 512" style="enable-background:new 0 0 512 512;" xml:space="preserve">
<circle style="fill:#36B446;" cx="256" cy="256" r="126.529"/>
<path style="fill:#36B446;" d="M367.87,315.15c-17.653,9.354-37.781,14.658-59.15,14.658c-12.299,0-24.185-1.762-35.427-5.035
	c-10.879-42.625-44.149-76.288-86.541-87.74c-2.968-10.747-4.56-22.065-4.56-33.755c0-21.37,5.305-41.496,14.658-59.15
	c-41.064,21.757-67.34,65.426-67.379,111.871c-0.036,42.414,21.912,82.799,57.397,105.99c20.476,13.383,44.676,20.539,69.132,20.539
	c1.548,0,3.087-0.03,4.621-0.084c0.108-0.004,0.213-0.013,0.321-0.017C307.36,380.644,347.362,353.857,367.87,315.15
	C350.217,324.503,347.362,353.857,367.87,315.15z"/>
<circle style="fill:#FFD652;" cx="154.777" cy="356.169" r="82.244"/>
<path style="fill:#FB9D46;" d="M177.446,415.742c-45.422,0-82.244-36.822-82.244-82.244c0-16.915,5.113-32.634,13.869-45.706
	c-22.031,14.755-36.539,39.869-36.539,68.375c0,45.422,36.822,82.244,82.244,82.244c28.507,0,53.62-14.508,68.375-36.539
	C210.08,410.631,194.362,415.742,177.446,415.742z"/>
<path d="M458.927,256.027c16.352-26.74,29.384-53.545,38.516-79.553c23.004-65.526,18.63-118.655-12.316-149.602
	C454.18-4.073,401.053-8.446,335.525,14.557c-26.008,9.131-52.811,22.164-79.551,38.516c-29.294-17.916-58.593-31.822-86.66-40.934
	C107.145-8.048,56.559-2.812,26.873,26.872C1.354,52.391-6.176,92.773,5.097,143.652c7.834,35.357,24.205,73.561,47.965,112.339
	c-16.347,26.735-29.376,53.532-38.505,79.535c-23.004,65.526-18.63,118.655,12.316,149.602C44.738,502.992,69.991,512,100.756,512
	c22.53,0,48.018-4.832,75.718-14.557c26.023-9.136,52.844-22.18,79.6-38.545c38.408,23.43,76.777,39.995,111.315,47.79
	c15.722,3.548,30.44,5.31,44.044,5.31c30.812,0,55.871-9.048,73.695-26.871c30.046-30.048,35.039-81.365,14.058-144.498
	C490.054,313.15,476.387,284.578,458.927,256.027z M340.765,29.48c26.088-9.16,49.826-13.713,70.492-13.713
	c26.448,0,47.862,7.463,62.686,22.289c26.41,26.409,29.456,73.705,8.577,133.178c-8.015,22.828-19.178,46.326-33.06,69.865
	c-19.653-29.858-43.341-59.477-70.248-87.577c-3.022-3.154-8.026-3.262-11.181-0.241c-3.154,3.021-3.263,8.026-0.241,11.181
	c28.144,29.391,52.637,60.425,72.506,91.555c-22.201,34.79-50.151,69.384-82.521,101.754c-32.363,32.364-66.95,60.31-101.734,82.508
	c-11.238-7.174-22.559-15.011-33.89-23.49c7.192-7.985,12.971-17.258,16.984-27.416c5.586,0.699,11.255,1.065,16.868,1.065
	c47.581,0,91.967-25.483,116.042-66.545c6.419-8.93,10.419-20.982,13.371-31.463c3.241-11.505,4.924-23.448,5.016-35.399
	c0.091-11.915-1.409-23.83-4.447-35.35c-2.908-11.027-7.043-24.492-14.023-33.71c-24.094-40.982-68.432-66.408-115.96-66.408
	c-47.581,0-91.967,25.483-116.042,66.545c-0.305,0.424-0.569,0.878-0.787,1.359c-11.516,20.185-17.609,43.168-17.609,66.532
	c0,4.917,0.277,9.922,0.823,14.879c0.022,0.196,0.056,0.387,0.092,0.577c-10.448,3.997-19.975,9.864-28.162,17.204
	c-8.137-10.931-15.672-21.855-22.592-32.704c22.199-34.782,50.141-69.367,82.505-101.729
	c32.366-32.367,66.957-60.315,101.744-82.515c29.657,18.928,59.246,42.055,87.395,68.541c3.18,2.993,8.185,2.842,11.179-0.34
	c2.993-3.181,2.841-8.186-0.34-11.179c-26.822-25.237-54.972-47.527-83.322-66.186C294.43,48.663,317.932,37.497,340.765,29.48
	C366.853,20.321,317.932,37.497,340.765,29.48z M243.69,373.977c1.151-5.761,1.766-11.713,1.766-17.808
	c0-10.14-1.698-19.885-4.782-28.996h38.634c-7.247,34.362-17.875,47.449-23.307,47.449
	C251.908,374.62,247.781,374.399,243.69,373.977z M229.205,144.253c-6.105,12.389-10.119,27.769-12.658,40.574H191.6
	C201.245,166.077,214.411,152.023,229.205,144.253z M320.399,184.827h-24.946c-2.538-12.806-6.553-28.184-12.658-40.574
	C297.589,152.023,310.754,166.077,320.399,184.827z M282.795,367.747c6.105-12.389,10.119-27.768,12.658-40.574H320.4
	C310.754,345.923,297.589,359.977,282.795,367.747z M327.268,311.356h-29.144c2.115-14.861,3.364-30.985,3.667-47.449h34.69
	C335.723,280.503,332.577,296.679,327.268,311.356z M301.791,248.092c-0.304-16.464-1.552-32.588-3.667-47.449h29.143
	c5.31,14.677,8.455,30.854,9.215,47.449H301.791z M282.144,200.644c2.209,14.74,3.514,30.897,3.831,47.449h-59.949
	c0.316-16.551,1.622-32.709,3.831-47.449H282.144z M184.732,200.644h29.144c-2.115,14.861-3.364,30.985-3.667,47.449h-34.69
	C176.276,231.497,179.423,215.32,184.732,200.644z M228.799,303.685c-1.587-12.689-2.508-26.039-2.767-39.778h59.942
	c-0.316,16.551-1.622,32.708-3.831,47.449h-46.378c-0.709,0-1.392,0.102-2.046,0.277c-1.507-2.66-3.145-5.235-4.904-7.721
	C228.808,303.836,228.808,303.761,228.799,303.685z M337.933,327.172h12.944c-8.216,10.917-18.191,20.246-29.399,27.664
	C327.767,346.771,333.319,337.497,337.933,327.172z M360.926,311.356h-16.943c4.804-14.91,7.633-31.02,8.322-47.449h22.051
	C373.25,280.506,368.667,296.699,360.926,311.356z M352.305,248.092c-0.69-16.429-3.519-32.538-8.322-47.449h16.943
	c7.741,14.656,12.324,30.85,13.43,47.449H352.305z M337.933,184.827c-4.613-10.325-10.166-19.598-16.455-27.664
	c11.208,7.418,21.183,16.746,29.399,27.664L337.933,184.827L337.933,184.827z M279.307,184.827h-46.613
	c7.247-34.362,17.875-47.449,23.307-47.449S272.06,150.464,279.307,184.827z M174.066,184.827h-12.944
	c8.216-10.917,18.191-20.246,29.399-27.664C184.233,165.228,178.68,174.503,174.066,184.827z M151.074,200.644h16.943
	c-4.804,14.91-7.633,31.02-8.322,47.449h-22.051C138.75,231.494,143.332,215.3,151.074,200.644z M137.908,267.087
	c-0.099-1.06-0.183-2.119-0.254-3.179h22.055c0.024,0.576,0.053,1.15,0.082,1.727c-1.662-0.091-3.332-0.146-5.016-0.146
	C149.011,265.49,143.378,266.053,137.908,267.087z M175.69,267.006c-0.065-1.034-0.1-2.066-0.148-3.098h34.67
	c0.131,7.213,0.442,14.324,0.928,21.304c-10.252-8.161-22.299-14.144-35.451-17.262C175.706,267.639,175.711,267.325,175.69,267.006
	z M38.057,38.057C63.324,12.79,108.205,8.927,164.431,27.181c24.804,8.053,50.654,20.044,76.627,35.371
	c-33.601,22.12-66.845,49.324-98.014,80.492c-31.162,31.163-58.362,64.401-80.479,97.996C11.655,154.725,0.827,75.286,38.057,38.057
	z M171.235,482.519c-26.088,9.16-49.826,13.715-70.492,13.713c-26.448-0.001-47.862-7.463-62.686-22.289
	c-26.411-26.409-29.456-73.706-8.578-133.178c8.015-22.829,19.179-46.328,33.062-69.868c6.103,9.259,12.608,18.532,19.518,27.791
	c0.429,0.576,0.927,1.068,1.467,1.491c-12.152,15.43-19.43,34.87-19.43,55.99c0,16.525,4.491,32.703,12.985,46.783
	c2.256,3.741,7.117,4.943,10.856,2.687c3.74-2.256,4.943-7.116,2.687-10.856c-7.008-11.616-10.712-24.968-10.712-38.614
	c0-41.279,33.584-74.863,74.863-74.863s74.863,33.584,74.863,74.863s-33.584,74.863-74.863,74.863
	c-13.813,0-27.305-3.79-39.02-10.96c-3.723-2.276-8.592-1.108-10.874,2.617c-2.28,3.725-1.108,8.592,2.617,10.874
	c14.2,8.69,30.548,13.285,47.276,13.285c20.964,0,40.273-7.17,55.649-19.161c0.234,0.227,0.48,0.446,0.747,0.647
	c9.911,7.466,19.922,14.511,29.964,21.104C217.584,463.33,194.075,474.501,171.235,482.519z M473.943,473.943
	c-37.335,37.337-116.646,26.484-202.992-24.501c33.598-22.118,66.839-49.321,98.005-80.485
	c31.171-31.172,58.376-64.419,80.498-98.023c14.909,25.27,26.667,50.441,34.724,74.685
	C503.171,402.775,499.538,448.348,473.943,473.943z"/>
<path d="M125.252,402.035h21.615v8.962c0,4.368,3.54,7.908,7.908,7.908c4.368,0,7.908-3.54,7.908-7.908v-8.962h6.854
	c10.174,0,18.452-8.278,18.452-18.452v-16.871c0-10.174-8.278-18.452-18.452-18.452h-6.854v-16.336v-5.807h16.178h5.438
	c4.368,0,7.908-3.54,7.908-7.908s-3.54-7.908-7.908-7.908h-5.438h-16.178v-8.962c0-4.368-3.54-7.908-7.908-7.908
	c-4.368,0-7.908,3.54-7.908,7.908v8.962h-1.065h-5.789c-10.174,0-18.452,8.278-18.452,18.452v16.871
	c0,10.174,8.278,18.452,18.452,18.452h6.854v22.143h-21.615c-4.368,0-7.908,3.54-7.908,7.908
	C117.344,398.495,120.885,402.035,125.252,402.035z M172.174,366.712v16.871c0,1.454-1.182,2.636-2.636,2.636h-6.854v-22.143h6.854
	C170.992,364.076,172.174,365.259,172.174,366.712z M137.378,345.624v-16.871c0-1.454,1.182-2.636,2.636-2.636h5.789h1.065v5.807
	v16.336h-6.854C138.561,348.26,137.378,347.078,137.378,345.624z"/>
<g>
</g>
<g>
</g>
<g>
</g>
<g>
</g>
<g>
</g>
<g>
</g>
<g>
</g>
<g>
</g>
<g>
</g>
<g>
</g>
<g>
</g>
<g>
</g>
<g>
</g>
<g>
</g>
<g>
</g>
</svg>
